<svg width="26" height="18" viewBox="0 0 26 18" fill="none" xmlns="http://www.w3.org/2000/svg">
<path d="M12.4434 0L12.1094 1.48438C10.8477 1.60807 9.69727 1.95443 8.6582 2.52344C7.61914 3.09245 6.79036 3.82227 6.17188 4.71289C5.55339 5.57878 5.24414 6.56836 5.24414 7.68164C5.24414 8.99284 5.63997 10.069 6.43164 10.9102C7.24805 11.7266 8.33659 12.2708 9.69727 12.543C9.67253 13.9779 9.23958 15.2396 8.39844 16.3281C7.55729 17.4167 6.43164 17.9609 5.02148 17.9609C3.71029 17.9609 2.62174 17.4538 1.75586 16.4395C0.914714 15.4004 0.494141 13.9655 0.494141 12.1348C0.494141 9.95768 1.01367 7.97852 2.05273 6.19727C3.11654 4.41602 4.55143 2.96875 6.35742 1.85547C8.16341 0.742188 10.1921 0.123698 12.4434 0ZM25.9883 0L25.6543 1.48438C24.3926 1.60807 23.2422 1.95443 22.2031 2.52344C21.1641 3.09245 20.3353 3.82227 19.7168 4.71289C19.0983 5.57878 18.7891 6.56836 18.7891 7.68164C18.7891 8.99284 19.1849 10.069 19.9766 10.9102C20.793 11.7266 21.8815 12.2708 23.2422 12.543C23.2174 13.9779 22.7845 15.2396 21.9434 16.3281C21.1022 17.4167 19.9766 17.9609 18.5664 17.9609C17.2552 17.9609 16.1667 17.4538 15.3008 16.4395C14.4596 15.4004 14.0391 13.9655 14.0391 12.1348C14.0391 9.95768 14.5586 7.97852 15.5977 6.19727C16.6615 4.41602 18.0964 2.96875 19.9023 1.85547C21.7083 0.742188 23.737 0.123698 25.9883 0Z" fill="#DEDEDE"/>
</svg>
