<svg width="154" height="59" viewBox="0 0 154 59" fill="none" xmlns="http://www.w3.org/2000/svg">
<g clip-path="url(#clip0_41_425)">
<path d="M85.0043 20.365C85.0043 19.865 85.1043 19.43 85.3043 19.065C85.5043 18.7 85.7743 18.415 86.1193 18.215C86.4643 18.015 86.8493 17.915 87.2793 17.915C87.8693 17.915 88.3343 18.095 88.6793 18.455C89.0243 18.815 89.1993 19.325 89.1993 19.99V26.915H91.9343V19.235C91.9343 18.38 91.7693 17.66 91.4393 17.06C91.1093 16.465 90.6543 16.025 90.0843 15.735C89.5093 15.45 88.8793 15.305 88.1893 15.305C87.4243 15.305 86.7693 15.45 86.2243 15.745C85.6793 16.04 85.2293 16.475 84.8793 17.045L84.5693 15.59H82.2993V26.91H85.0143V20.365H85.0043ZM78.4093 37.65C78.0693 37.06 77.6243 36.62 77.0643 36.325C76.5043 36.03 75.8643 35.885 75.1443 35.885C74.1443 35.885 73.2743 36.14 72.5293 36.645C71.7843 37.155 71.2193 37.855 70.8293 38.75C70.4393 39.645 70.2443 40.655 70.2443 41.77C70.2443 42.83 70.4193 43.805 70.7643 44.705C71.1093 45.6 71.6443 46.325 72.3643 46.865C73.0843 47.41 73.9993 47.68 75.0993 47.68C75.8943 47.68 76.5843 47.52 77.1743 47.195C77.7643 46.87 78.2093 46.37 78.5193 45.695L78.8943 47.48H81.1893V36.16H78.8943L78.4093 37.65ZM78.1443 43.515C77.9393 44.015 77.6293 44.405 77.2193 44.685C76.8093 44.965 76.2993 45.105 75.6993 45.105C75.1093 45.105 74.6193 44.97 74.2193 44.695C73.8243 44.425 73.5243 44.04 73.3243 43.55C73.1243 43.055 73.0243 42.495 73.0243 41.86C73.0243 41.2 73.1293 40.615 73.3343 40.105C73.5393 39.595 73.8393 39.205 74.2393 38.925C74.6343 38.645 75.1293 38.505 75.7193 38.505C76.3093 38.505 76.8093 38.65 77.2193 38.935C77.6293 39.22 77.9393 39.615 78.1443 40.115C78.3493 40.615 78.4543 41.175 78.4543 41.79C78.4543 42.445 78.3493 43.015 78.1443 43.515ZM87.5543 36.445C87.1143 36.715 86.7693 37.11 86.5193 37.625L86.2093 36.17H83.9393V47.49H86.6543V41.2C86.6543 40.345 86.8693 39.7 87.3043 39.26C87.7393 38.82 88.2843 38.6 88.9493 38.6C89.3293 38.6 89.7293 38.675 90.1393 38.82V36.175C89.7693 36.085 89.4243 36.045 89.1043 36.045C88.5093 36.04 87.9943 36.17 87.5543 36.445ZM80.0193 15.595H77.2843V26.915H80.0193V15.595ZM78.5293 11.03C77.7993 11.65 77.0493 12.2 76.2693 12.685L77.2643 14.23C78.1043 13.865 78.9343 13.39 79.7593 12.82C80.5843 12.245 81.2893 11.63 81.8793 10.965L80.3143 9.265C79.8493 9.825 79.2593 10.415 78.5293 11.03ZM139.549 36.31C138.974 36.025 138.344 35.88 137.654 35.88C136.889 35.88 136.234 36.025 135.689 36.32C135.144 36.615 134.694 37.05 134.344 37.62L134.034 36.165H131.764V47.485H134.479V40.935C134.479 40.435 134.579 40 134.779 39.635C134.979 39.27 135.249 38.985 135.594 38.785C135.939 38.585 136.324 38.485 136.754 38.485C137.344 38.485 137.809 38.665 138.154 39.025C138.499 39.385 138.674 39.895 138.674 40.56V47.485H141.409V39.805C141.409 38.95 141.244 38.23 140.914 37.63C140.574 37.04 140.124 36.595 139.549 36.31ZM151.044 37.65C150.704 37.06 150.259 36.62 149.699 36.325C149.139 36.03 148.499 35.885 147.779 35.885C146.779 35.885 145.909 36.14 145.164 36.645C144.419 37.15 143.854 37.855 143.464 38.75C143.074 39.645 142.879 40.655 142.879 41.77C142.879 42.83 143.049 43.805 143.399 44.705C143.744 45.6 144.279 46.325 144.999 46.865C145.719 47.41 146.634 47.68 147.734 47.68C148.529 47.68 149.219 47.52 149.809 47.195C150.399 46.87 150.844 46.37 151.154 45.695L151.529 47.48H153.824V36.16H151.529L151.044 37.65ZM150.779 43.515C150.574 44.015 150.264 44.405 149.854 44.685C149.444 44.965 148.934 45.105 148.334 45.105C147.744 45.105 147.254 44.97 146.854 44.695C146.459 44.425 146.159 44.04 145.959 43.55C145.759 43.055 145.659 42.495 145.659 41.86C145.659 41.2 145.764 40.615 145.969 40.105C146.174 39.595 146.474 39.205 146.874 38.925C147.269 38.645 147.764 38.505 148.354 38.505C148.944 38.505 149.444 38.65 149.854 38.935C150.264 39.22 150.574 39.615 150.779 40.115C150.984 40.615 151.089 41.175 151.089 41.79C151.089 42.445 150.984 43.015 150.779 43.515ZM65.4243 23.64C64.6793 24.175 63.8193 24.445 62.8293 24.445C62.0193 24.445 61.2793 24.26 60.6143 23.895C59.9443 23.53 59.4093 22.945 59.0043 22.15C58.5993 21.355 58.3993 20.365 58.3993 19.17C58.3993 18.01 58.5993 17.03 58.9943 16.235C59.3893 15.44 59.9293 14.85 60.6043 14.46C61.2793 14.07 62.0243 13.875 62.8343 13.875C63.7193 13.875 64.4693 14.085 65.0943 14.505C65.7193 14.925 66.1293 15.495 66.3193 16.215L69.0093 15.355C68.6243 14 67.8793 12.955 66.7693 12.21C65.6593 11.47 64.3593 11.095 62.8743 11.095C61.5793 11.095 60.3643 11.395 59.2243 12C58.0843 12.605 57.1643 13.52 56.4643 14.745C55.7643 15.975 55.4143 17.47 55.4143 19.235C55.4143 21 55.7493 22.485 56.4193 23.69C57.0893 24.895 57.9743 25.795 59.0793 26.38C60.1843 26.97 61.3893 27.26 62.6993 27.26C64.2743 27.26 65.6793 26.845 66.9243 26.015C68.1693 25.185 69.0243 24.025 69.4943 22.54L66.9143 21.435C66.6643 22.375 66.1693 23.1 65.4243 23.64ZM127.744 36.685C126.904 36.15 125.914 35.88 124.764 35.88C123.619 35.88 122.619 36.15 121.774 36.685C120.929 37.22 120.284 37.945 119.844 38.845C119.404 39.75 119.184 40.73 119.184 41.79C119.184 42.85 119.404 43.825 119.844 44.725C120.284 45.62 120.929 46.34 121.774 46.875C122.619 47.41 123.614 47.68 124.764 47.68C125.909 47.68 126.904 47.41 127.744 46.875C128.584 46.34 129.224 45.62 129.674 44.725C130.124 43.83 130.349 42.85 130.349 41.79C130.349 40.73 130.124 39.75 129.674 38.845C129.229 37.945 128.584 37.225 127.744 36.685ZM127.249 43.46C127.034 43.955 126.714 44.345 126.289 44.64C125.864 44.935 125.354 45.08 124.769 45.08C124.164 45.08 123.649 44.935 123.224 44.64C122.799 44.345 122.479 43.95 122.274 43.46C122.069 42.965 121.964 42.41 121.964 41.795C121.964 41.18 122.069 40.62 122.274 40.12C122.479 39.62 122.794 39.225 123.224 38.93C123.649 38.635 124.164 38.49 124.769 38.49C125.359 38.49 125.864 38.635 126.289 38.93C126.714 39.225 127.034 39.62 127.249 40.12C127.464 40.62 127.569 41.18 127.569 41.795C127.569 42.41 127.464 42.97 127.249 43.46ZM107.534 26.255C108.414 25.68 109.054 24.86 109.454 23.785L107.224 22.77C106.989 23.345 106.669 23.775 106.264 24.06C105.859 24.345 105.364 24.49 104.774 24.49C104.229 24.49 103.754 24.37 103.339 24.125C102.929 23.88 102.604 23.515 102.369 23.02C102.134 22.53 102.014 21.93 102.014 21.22C102.014 20.53 102.129 19.93 102.354 19.42C102.584 18.915 102.904 18.535 103.314 18.285C103.724 18.035 104.204 17.91 104.749 17.91C105.324 17.91 105.809 18.065 106.204 18.375C106.599 18.685 106.889 19.145 107.064 19.765L109.404 18.86C109.079 17.61 108.494 16.705 107.649 16.145C106.804 15.585 105.844 15.305 104.769 15.305C103.769 15.305 102.844 15.53 101.999 15.98C101.154 16.43 100.479 17.1 99.9793 18C99.4793 18.895 99.2293 19.995 99.2293 21.285C99.2293 22.565 99.4693 23.64 99.9443 24.505C100.424 25.375 101.069 26.025 101.884 26.46C102.699 26.895 103.589 27.11 104.544 27.11C105.659 27.115 106.649 26.825 107.534 26.255ZM97.8843 44.63C97.4793 44.915 96.9843 45.06 96.3943 45.06C95.8493 45.06 95.3743 44.94 94.9593 44.695C94.5493 44.45 94.2243 44.085 93.9893 43.59C93.7543 43.1 93.6343 42.5 93.6343 41.79C93.6343 41.1 93.7493 40.5 93.9743 39.99C94.2043 39.48 94.5243 39.105 94.9343 38.855C95.3443 38.605 95.8243 38.48 96.3693 38.48C96.9443 38.48 97.4293 38.635 97.8243 38.945C98.2193 39.255 98.5093 39.715 98.6843 40.335L101.024 39.43C100.699 38.18 100.114 37.275 99.2693 36.715C98.4243 36.155 97.4643 35.875 96.3893 35.875C95.3893 35.875 94.4643 36.1 93.6193 36.55C92.7743 37 92.0993 37.67 91.5993 38.57C91.0993 39.465 90.8493 40.565 90.8493 41.855C90.8493 43.135 91.0893 44.21 91.5643 45.075C92.0443 45.945 92.6893 46.595 93.5043 47.025C94.3193 47.46 95.2043 47.675 96.1643 47.675C97.2693 47.675 98.2593 47.39 99.1443 46.815C100.029 46.24 100.664 45.42 101.064 44.345L98.8343 43.33C98.6093 43.915 98.2893 44.345 97.8843 44.63ZM110.014 36.445C109.284 36.07 108.479 35.885 107.599 35.885C106.629 35.885 105.734 36.115 104.919 36.57C104.104 37.025 103.454 37.705 102.964 38.61C102.474 39.515 102.234 40.59 102.234 41.84C102.234 43.105 102.479 44.175 102.964 45.05C103.449 45.925 104.099 46.585 104.904 47.025C105.714 47.465 106.604 47.685 107.574 47.685C108.544 47.685 109.449 47.46 110.289 47.01C111.129 46.56 111.819 45.91 112.364 45.055L110.399 43.71C110.089 44.195 109.724 44.555 109.309 44.79C108.889 45.025 108.384 45.145 107.799 45.145C106.914 45.145 106.209 44.87 105.669 44.32C105.334 43.975 105.104 43.51 104.979 42.92H112.409V41.11C112.409 39.935 112.194 38.955 111.759 38.175C111.324 37.4 110.744 36.82 110.014 36.445ZM104.944 40.695C104.999 40.375 105.089 40.08 105.204 39.825C105.434 39.32 105.749 38.935 106.154 38.68C106.559 38.425 107.039 38.295 107.599 38.295C108.274 38.295 108.809 38.5 109.199 38.915C109.589 39.325 109.784 39.925 109.784 40.7H104.944V40.695ZM117.029 44.905C116.799 44.67 116.689 44.295 116.689 43.78V31.67H113.974V44.29C113.974 45.425 114.249 46.27 114.799 46.84C115.349 47.405 116.069 47.69 116.949 47.69C117.494 47.69 118.074 47.57 118.694 47.335V45.13C118.414 45.22 118.164 45.26 117.944 45.26C117.564 45.255 117.259 45.14 117.029 44.905ZM96.6743 23.21V15.6H93.9393V23.72C93.9393 24.855 94.2193 25.7 94.7793 26.27C95.3393 26.835 96.0493 27.12 96.9193 27.12C97.4643 27.12 98.0493 27 98.6843 26.765V24.56C98.4343 24.635 98.1893 24.67 97.9543 24.67C97.5593 24.67 97.2443 24.555 97.0143 24.315C96.7893 24.075 96.6743 23.71 96.6743 23.21ZM73.9093 27.115C74.4543 27.115 75.0343 26.995 75.6543 26.76V24.555C75.3743 24.645 75.1243 24.69 74.9043 24.69C74.5193 24.69 74.2143 24.57 73.9893 24.335C73.7593 24.1 73.6493 23.725 73.6493 23.21V11.1H70.9343V23.72C70.9343 24.855 71.2093 25.7 71.7593 26.27C72.3093 26.83 73.0243 27.115 73.9093 27.115ZM95.3093 14.165C95.8543 14.165 96.2993 13.99 96.6443 13.645C96.9893 13.3 97.1643 12.86 97.1643 12.335C97.1643 11.805 96.9893 11.37 96.6443 11.02C96.2993 10.675 95.8543 10.5 95.3093 10.5C94.7793 10.5 94.3443 10.675 93.9943 11.02C93.6493 11.365 93.4743 11.805 93.4743 12.335C93.4743 12.865 93.6493 13.3 93.9943 13.645C94.3393 13.99 94.7793 14.165 95.3093 14.165ZM66.1193 39.125C66.7243 38.845 67.1993 38.425 67.5543 37.855C67.9093 37.29 68.0843 36.665 68.0843 35.99C68.0843 35.3 67.9143 34.65 67.5793 34.05C67.2393 33.445 66.7193 32.955 66.0143 32.57C65.3093 32.19 64.4393 31.995 63.4093 31.995H57.1443V47.485H63.5843C64.6893 47.485 65.6443 47.255 66.4543 46.8C67.2643 46.345 67.8743 45.765 68.2843 45.055C68.6943 44.35 68.9043 43.605 68.9043 42.825C68.9043 42 68.6643 41.245 68.1893 40.565C67.7043 39.89 67.0193 39.405 66.1193 39.125ZM60.0093 34.6H63.1843C63.8043 34.6 64.2793 34.775 64.6193 35.13C64.9593 35.485 65.1293 35.91 65.1293 36.41C65.1293 36.72 65.0543 37.015 64.9093 37.295C64.7643 37.575 64.5393 37.805 64.2493 37.98C63.9543 38.155 63.6043 38.245 63.1893 38.245H60.0143L60.0093 34.6ZM65.6593 43.775C65.4843 44.09 65.2243 44.35 64.8893 44.56C64.5493 44.765 64.1393 44.87 63.6543 44.87H60.0143V40.655H63.6093C64.1093 40.655 64.5343 40.755 64.8793 40.955C65.2243 41.155 65.4843 41.41 65.6643 41.725C65.8393 42.04 65.9293 42.385 65.9293 42.75C65.9293 43.115 65.8343 43.45 65.6593 43.775Z" fill="#222222"/>
<path d="M8.82418 29.29C8.82418 36.71 14.8592 42.745 22.2792 42.745V39.58C16.6042 39.58 11.9892 34.965 11.9892 29.29C11.9892 23.615 16.6042 19 22.2792 19V15.835C14.8592 15.835 8.82418 21.875 8.82418 29.29ZM0.90918 29.29C0.90918 41.075 10.4992 50.66 22.2842 50.66V47.495C12.2442 47.495 4.07418 39.325 4.07418 29.29C4.07418 19.25 12.2442 11.08 22.2842 11.08V7.915C10.4942 7.92 0.90918 17.505 0.90918 29.29ZM36.5292 41.165C36.5292 35.925 32.2692 31.665 27.0292 31.665V34.83C30.5192 34.83 33.3642 37.67 33.3642 41.165C33.3642 44.66 30.5242 47.5 27.0292 47.5V50.665C32.2692 50.665 36.5292 46.405 36.5292 41.165ZM44.4492 17.415C44.4492 7.81 36.6392 0 27.0342 0V3.165C34.8892 3.165 41.2842 9.555 41.2842 17.415C41.2842 21.06 39.8842 24.55 37.4042 27.18C36.0692 26.185 34.5842 25.38 32.9942 24.8C35.1492 23.055 36.5342 20.395 36.5342 17.415C36.5342 12.175 32.2742 7.915 27.0342 7.915V11.08C30.5242 11.08 33.3692 13.92 33.3692 17.415C33.3692 20.905 30.5292 23.75 27.0342 23.75V26.915C34.8892 26.915 41.2842 33.31 41.2842 41.165C41.2842 49.025 34.8892 55.415 27.0342 55.415V58.58C36.6392 58.58 44.4492 50.77 44.4492 41.165C44.4492 36.58 42.6642 32.41 39.7592 29.295C42.7542 26.085 44.4492 21.845 44.4492 17.415Z" fill="#222222"/>
</g>
<defs>
<clipPath id="clip0_41_425">
<rect width="153" height="59" fill="white" transform="translate(0.90918)"/>
</clipPath>
</defs>
</svg>
