<svg width="167" height="43" viewBox="0 0 167 43" fill="none" xmlns="http://www.w3.org/2000/svg">
<g clip-path="url(#clip0_132_48)">
<path d="M27.0073 0C27.0617 0.0889655 27.1556 0.0790805 27.2396 0.0889655C27.5461 0.123563 27.8574 0.153218 28.1639 0.192759C29.0782 0.311379 29.963 0.548621 30.823 0.87977C33.1311 1.76943 34.9994 3.23736 36.4723 5.21931C37.1939 6.19299 37.7623 7.25563 38.2071 8.38253C38.5679 9.31667 38.8299 10.2755 38.988 11.264C39.1116 12.0252 39.1758 12.8011 39.1758 13.5722V14.0714C39.1659 14.4025 39.3043 14.6497 39.5762 14.8424C39.9024 15.0747 40.2236 15.3021 40.5251 15.564C41.5977 16.5031 42.4033 17.6399 42.9915 18.9299C43.3523 19.7157 43.6093 20.5362 43.7724 21.3814C43.9207 22.1524 43.9355 22.9333 43.8663 23.7143C43.7823 24.6632 43.5895 25.5875 43.2584 26.4771C42.517 28.4986 41.2715 30.1148 39.4477 31.2763C38.5135 31.8694 37.5053 32.2945 36.4327 32.5713C35.978 32.6899 35.7111 32.9667 35.632 33.4313C35.5678 33.8316 35.4986 34.232 35.4047 34.6224C35.0538 36.1101 34.3964 37.4495 33.4474 38.6407C32.37 39.9949 31.0355 41.023 29.4489 41.7149C28.4901 42.1351 27.4867 42.3921 26.4439 42.5156C26.0831 42.5552 25.7272 42.5848 25.3664 42.5947C24.6695 42.6145 23.9825 42.5008 23.3004 42.3772C22.4602 42.224 21.6496 41.9522 20.8736 41.5864C19.2476 40.8203 17.8982 39.7132 16.8356 38.2552C16.7516 38.1366 16.6676 38.0179 16.5786 37.9043C16.3315 37.5879 16.0053 37.4792 15.6148 37.5731C15.2985 37.6522 14.9871 37.7411 14.6708 37.8252C14.0085 37.9932 13.3363 38.0772 12.6542 38.102C11.6558 38.1365 10.6723 38.0377 9.70847 37.7856C8.5964 37.494 7.55847 37.0344 6.59468 36.3968C5.50732 35.6801 4.58801 34.7905 3.84169 33.7229C3.28812 32.9321 2.85812 32.077 2.5418 31.1626C2.08215 29.8331 1.91904 28.464 2.01295 27.0653C2.08709 25.968 2.3441 24.9103 2.76916 23.8971C2.99157 23.3633 3.26835 22.8543 3.55996 22.3551C3.64399 22.2167 3.70824 22.0536 3.73789 21.8954C3.7972 21.5643 3.69835 21.2677 3.45123 21.0255C3.17445 20.7537 2.88284 20.4868 2.61594 20.2051C1.6818 19.2067 0.979963 18.06 0.540078 16.7601C0.317664 16.1077 0.174331 15.4405 0.0952505 14.7534C0.0408826 14.2641 -0.0184277 13.7798 0.0359401 13.2855C0.124906 12.3909 0.268239 11.5111 0.559848 10.6561C1.26663 8.61483 2.46272 6.93931 4.25192 5.70368C5.22065 5.03644 6.2833 4.5669 7.42008 4.29506C8.45801 4.04299 9.51571 3.95897 10.5882 4.05287C11.9969 4.17149 13.3215 4.57678 14.5818 5.20448C14.735 5.27862 14.908 5.3231 15.0761 5.34782C15.343 5.38736 15.5753 5.28851 15.7581 5.08586C15.9805 4.83874 16.203 4.59161 16.4303 4.34943C17.147 3.58828 17.923 2.89632 18.778 2.29828C19.5046 1.7892 20.2707 1.36414 21.0862 1.0231C21.6892 0.771034 22.307 0.568391 22.9396 0.420115C23.5723 0.271839 24.2148 0.158161 24.8672 0.113678C25.0105 0.103793 25.1539 0.093908 25.2972 0.0691954C25.3713 0.0593103 25.4455 0.0197701 25.5196 0H27.0073ZM25.2527 38.5616C25.7618 38.5616 26.2659 38.5221 26.7602 38.4084C27.7536 38.186 28.668 37.7906 29.4835 37.1728C31.0157 36.0063 31.9449 34.4791 32.2415 32.5762C32.2958 32.2352 32.3057 31.8843 32.3403 31.5432C32.3897 31.0539 32.5825 30.6486 33.0619 30.446C33.2398 30.3718 33.4326 30.3224 33.6254 30.3076C34.3124 30.2483 34.9895 30.1445 35.6419 29.9171C37.1247 29.3982 38.3307 28.4937 39.2351 27.2086C39.8925 26.2745 40.2978 25.2366 40.4362 24.1097C40.535 23.309 40.5004 22.5132 40.2978 21.7224C40.0902 20.9069 39.7986 20.121 39.3785 19.3945C39.2895 19.2413 39.1659 19.1029 39.0276 18.9892C38.6865 18.7124 38.0588 18.658 37.703 19.2067C37.6535 19.2857 37.6091 19.3698 37.5596 19.4488C37.2878 19.8937 37.0357 20.3484 36.7392 20.7734C35.8792 22.0041 34.8363 23.0569 33.6451 23.9762C33.2497 24.2826 32.8148 24.4013 32.3205 24.2728C31.7719 24.1294 31.3963 23.7884 31.248 23.2447C31.0997 22.6961 31.2184 22.1969 31.6484 21.7966C31.7324 21.7175 31.8213 21.6433 31.9103 21.5692C32.4787 21.0947 32.9927 20.5708 33.4524 19.9876C34.8215 18.2676 35.6024 16.3202 35.721 14.1208C35.7951 12.732 35.5678 11.3876 35.0587 10.0877C34.3618 8.32322 33.2547 6.87011 31.767 5.69874C30.2051 4.46805 28.4308 3.76621 26.4389 3.60805C25.4109 3.52897 24.4026 3.62287 23.4042 3.85023C22.6974 4.00839 22.0154 4.24563 21.358 4.55701C20.3942 5.01172 19.4798 5.5554 18.6989 6.29184C18.0317 6.91954 17.4534 7.62138 17.0185 8.43195C16.8603 8.72851 16.6577 8.97069 16.3265 9.07943C15.7977 9.25241 15.3084 9.17333 14.8734 8.83724C13.8355 8.03655 12.674 7.51264 11.3692 7.32483C10.2077 7.15678 9.07088 7.25563 7.97364 7.65598C6.69353 8.12552 5.66054 8.91632 4.8895 10.0482C4.13824 11.1553 3.70824 12.3711 3.64399 13.7106C3.59456 14.7287 3.75766 15.7123 4.15307 16.6514C4.62755 17.7783 5.3541 18.7025 6.31295 19.4538C7.11364 20.0815 8.01813 20.4769 9.02146 20.6449C9.4564 20.7141 9.89629 20.7636 10.3312 20.8179C11.0776 20.9069 11.6163 21.6582 11.4581 22.3897C11.3197 23.0371 10.8255 23.4671 10.1484 23.4721C9.64422 23.4721 9.13514 23.4325 8.63594 23.3683C8.201 23.3139 7.771 23.2002 7.341 23.1113C7.16801 23.0767 6.99996 23.0767 6.82698 23.136C6.53537 23.2398 6.34755 23.4474 6.20422 23.7093C5.6556 24.7077 5.34916 25.7753 5.29479 26.9121C5.23548 28.118 5.46778 29.2697 5.97686 30.3669C7.13341 32.8728 9.63433 34.5433 12.3923 34.6422C13.0101 34.662 13.623 34.6274 14.221 34.4741C14.4533 34.4148 14.6362 34.2764 14.7696 34.0787C14.9426 33.8217 14.9525 33.54 14.9179 33.2435C14.7548 31.8497 14.9228 30.4855 15.3331 29.156C15.6741 28.0439 16.2128 27.0257 16.89 26.0768C17.2656 25.5529 17.9724 25.2761 18.6149 25.5183C19.1388 25.716 19.47 26.0916 19.5688 26.6551C19.6331 27.0455 19.549 27.4014 19.3365 27.7276C18.8027 28.5431 18.4617 29.4377 18.3085 30.3966C18.0861 31.7656 18.259 33.0902 18.8176 34.3605C19.9444 36.9207 22.4602 38.5715 25.2428 38.5715L25.2527 38.5616Z" fill="black"/>
<path d="M166.149 21.9498C166.105 22.1969 166.065 22.4441 166.021 22.6912C165.828 23.6995 165.418 24.6188 164.815 25.4491C163.915 26.6848 162.729 27.5398 161.276 28.0143C160.149 28.385 158.998 28.4641 157.826 28.2367C157.5 28.1725 157.179 28.0884 156.857 27.9995C156.18 27.8166 155.572 28.2367 155.523 28.9385C155.498 29.2697 155.503 29.6008 155.493 29.9369C155.444 31.2566 155.39 32.5812 155.335 33.9008C155.315 34.3852 155.152 34.8053 154.772 35.1216C154.04 35.7296 152.884 35.433 152.523 34.5533C152.449 34.3704 152.419 34.1776 152.409 33.9849C152.375 32.8283 152.335 31.6718 152.295 30.5152C152.236 28.6815 152.182 26.8429 152.127 25.0092C152.098 23.9911 152.058 22.9729 152.034 21.9548C152.019 21.2974 152.019 20.64 152.147 19.9876C152.33 19.0436 152.676 18.1737 153.21 17.378C154.045 16.1226 155.177 15.228 156.581 14.6942C157.648 14.2839 158.76 14.1307 159.902 14.279C161.953 14.541 163.599 15.4998 164.825 17.1654C165.423 17.981 165.818 18.8904 166.016 19.8838C166.065 20.1359 166.105 20.3929 166.149 20.645V21.9498ZM159.087 24.9796C161.118 24.9895 162.769 23.3535 162.788 21.3172C162.803 19.2808 161.148 17.6152 159.106 17.6103C157.016 17.6053 155.409 19.3253 155.409 21.2776C155.409 23.3238 157.035 24.9697 159.087 24.9845V24.9796Z" fill="black"/>
<path d="M128.502 28.3603C127.746 28.3603 127 28.2417 126.283 28.0044C125.749 27.8265 125.052 28.1181 125.008 28.8793C124.978 29.4328 124.958 29.9913 124.934 30.5449C124.889 31.6767 124.85 32.8135 124.81 33.9454C124.785 34.5731 124.504 35.0377 123.94 35.3095C123.144 35.6901 122.156 35.2205 121.938 34.3704C121.899 34.2123 121.879 34.0442 121.869 33.8811C121.79 32.2006 121.721 30.5152 121.642 28.8348C121.637 28.6766 121.622 28.5185 121.607 28.3603C121.563 27.8957 121.148 27.609 120.752 27.5843C120.545 27.5744 120.352 27.6288 120.169 27.7178C119.823 27.8809 119.462 27.9649 119.082 27.9649C118.464 27.9649 117.92 27.7573 117.451 27.3619C117.367 27.2927 117.292 27.2136 117.208 27.1494C116.719 26.7688 116.096 26.749 115.543 27.0851C115.246 27.2631 114.95 27.4509 114.643 27.6041C113.823 28.0242 112.948 28.2614 112.029 28.3257C111.347 28.3751 110.669 28.3356 110.002 28.1923C109.147 28.0044 108.351 27.6683 107.615 27.1889C107.59 27.1741 107.566 27.1593 107.541 27.1395C107.051 26.8331 106.755 26.8677 106.34 27.2631C105.435 28.1379 104.353 28.474 103.117 28.2911C102.47 28.1972 101.887 27.9204 101.382 27.5003C101.279 27.4113 101.175 27.3174 101.071 27.2285C100.468 26.7144 99.6871 26.7194 99.099 27.2482C98.7826 27.5349 98.4515 27.8067 98.0561 27.9797C96.6623 28.5877 95.3525 28.4443 94.1416 27.5151C94.0279 27.4262 93.9241 27.3273 93.8154 27.2285C93.2371 26.7194 92.4414 26.7243 91.8582 27.2285C91.6456 27.4113 91.4331 27.5991 91.1959 27.7524C90.4001 28.2812 89.5154 28.4344 88.5813 28.2862C87.8251 28.1675 87.1727 27.8216 86.624 27.2878C86.5202 27.1889 86.4263 27.0802 86.3176 26.9813C85.9568 26.6403 85.5317 26.5909 85.1067 26.8528C84.8892 26.9863 84.6915 27.1395 84.474 27.2729C83.0506 28.1527 81.4937 28.5135 79.8429 28.2862C77.4507 27.96 75.6516 26.7095 74.4901 24.5891C73.8328 23.3931 73.551 22.0932 73.6894 20.7389C73.9662 18.0008 75.3649 16.0188 77.856 14.8375C78.8544 14.3631 79.917 14.1802 81.0192 14.2247C83.6684 14.3334 86.0309 15.915 87.1479 18.3072C87.4939 19.0486 87.6867 19.8295 87.7855 20.6351C87.8844 21.4506 87.9981 22.2711 88.1068 23.0866C88.1414 23.3585 88.1859 23.6303 88.2155 23.9021C88.2649 24.3568 88.6999 24.8462 89.2683 24.9005C89.8218 24.9549 90.3902 24.6336 90.5781 24.1344C90.6374 23.9763 90.667 23.7983 90.672 23.6303C90.7461 21.5841 90.8153 19.5428 90.8845 17.4966C90.9685 14.9463 91.0575 12.3959 91.1415 9.84558C91.1563 9.39581 91.186 8.95098 91.1909 8.50121C91.2008 7.87351 91.6753 7.1865 92.5106 7.09753C93.3656 7.00857 94.0724 7.68075 94.107 8.45673C94.1515 9.5688 94.1861 10.6809 94.2256 11.7929C94.3097 14.2148 94.3937 16.6317 94.4826 19.0535C94.5321 20.4028 94.5766 21.7571 94.6458 23.1064C94.6804 23.8033 95.0066 24.3519 95.6244 24.6979C96.5486 25.2218 97.7843 24.772 98.1797 23.7835C98.2686 23.5611 98.3131 23.3288 98.323 23.0866C98.3724 21.6286 98.4218 20.1656 98.4713 18.7075C98.5602 16.1522 98.6492 13.592 98.7382 11.0367C98.7678 10.2113 98.7925 9.39087 98.8271 8.56547C98.8518 7.93777 99.1484 7.48305 99.7217 7.21616C100.498 6.85041 101.506 7.32983 101.704 8.16512C101.738 8.31834 101.763 8.4765 101.768 8.63466C101.842 10.6216 101.911 12.6085 101.985 14.5954C102.099 17.6152 102.218 20.6351 102.336 23.655C102.361 24.2481 102.712 24.6831 103.28 24.8264C104.086 25.029 104.877 24.2877 104.729 23.4672C104.649 23.0273 104.56 22.5874 104.491 22.1475C104.373 21.3864 104.427 20.6351 104.58 19.8839C104.822 18.6878 105.341 17.6301 106.132 16.7058C107.051 15.6333 108.188 14.8968 109.547 14.5064C110.655 14.1901 111.786 14.1258 112.918 14.3779C115.444 14.9463 117.179 16.4488 118.138 18.8459C118.35 19.3748 118.464 19.9382 118.533 20.5066C118.592 20.9663 118.671 21.421 118.746 21.8757C118.825 22.3749 118.904 22.8741 118.983 23.3733C119.032 23.6797 119.082 23.9862 119.245 24.2629C119.507 24.7078 119.976 24.9302 120.456 24.8412C121.044 24.7275 121.316 24.347 121.414 23.8527C121.439 23.739 121.439 23.6204 121.439 23.5067C121.444 22.7604 121.449 22.019 121.454 21.2727C121.454 20.7488 121.503 20.2298 121.622 19.7257C121.835 18.8014 122.215 17.9464 122.774 17.1754C123.604 16.0237 124.686 15.1934 126.016 14.6942C127.089 14.2889 128.196 14.1406 129.342 14.284C131.141 14.5163 132.644 15.2972 133.84 16.6514C134.586 17.4966 135.086 18.4703 135.367 19.5577C135.6 20.4671 135.659 21.3864 135.516 22.3106C135.244 24.0702 134.433 25.5431 133.069 26.6996C132.283 27.3619 131.389 27.8216 130.405 28.1082C129.886 28.2614 129.1 28.3652 128.517 28.3603H128.502ZM111.475 24.9796C113.516 24.9846 115.157 23.3535 115.177 21.3172C115.197 19.3303 113.581 17.6152 111.5 17.6054C109.463 17.5955 107.798 19.2512 107.798 21.2925C107.798 23.3239 109.444 24.9697 111.48 24.9796H111.475ZM80.7177 24.9796C82.7639 24.9796 84.4197 23.3239 84.4098 21.2826C84.4048 19.2512 82.754 17.6054 80.7177 17.6054C78.6814 17.6054 77.0207 19.2314 77.0256 21.3024C77.0306 23.4227 78.7654 24.9895 80.7177 24.9796ZM132.189 21.2925C132.189 19.2463 130.533 17.6004 128.487 17.6103C126.451 17.6152 124.81 19.2611 124.81 21.3024C124.81 23.3387 126.456 24.9796 128.492 24.9845C130.543 24.9845 132.194 23.3387 132.189 21.2974V21.2925Z" fill="black"/>
<path d="M72.3353 19.0781C72.3798 19.9975 72.444 20.9118 72.4638 21.8311C72.5132 24.1096 71.6088 25.9235 69.7652 27.263C68.9645 27.8462 68.0551 28.1872 67.0715 28.3306C65.5443 28.553 64.1258 28.2465 62.8061 27.4508C62.5738 27.3075 62.3366 27.1691 62.0598 27.1098C61.6397 27.0208 61.2591 27.0949 60.8884 27.2976C60.5276 27.4953 60.1767 27.7127 59.8011 27.8808C58.7088 28.3602 57.567 28.5233 56.3858 28.3306C54.1419 27.9698 52.5256 26.7489 51.5421 24.7077C51.0478 23.6846 50.8847 22.5923 50.9935 21.4555C51.0577 20.7932 51.0775 20.1309 51.117 19.4637C51.1862 18.228 51.2554 16.9973 51.3246 15.7617C51.3493 15.3614 51.4482 14.9907 51.7398 14.6991C52.1698 14.2691 52.6838 14.1307 53.2522 14.3333C53.8206 14.536 54.1666 14.966 54.2061 15.5838C54.305 17.111 54.384 18.6432 54.4779 20.1754C54.5224 20.9464 54.5422 21.7224 54.6411 22.4885C54.7745 23.5066 55.3725 24.2085 56.3166 24.5841C57.6659 25.1179 59.1486 24.4952 59.7516 23.1706C59.8801 22.8938 59.9543 22.5972 59.9839 22.2957C60.0976 21.0947 60.2113 19.8937 60.325 18.6926C60.3645 18.2676 60.409 17.8425 60.4386 17.4175C60.4831 16.8095 60.9378 16.2955 61.5507 16.2065C62.2773 16.1027 62.8506 16.5772 62.9989 17.116C63.0186 17.1901 63.0483 17.2692 63.0582 17.3483C63.1274 18.06 63.1867 18.7717 63.2509 19.4834C63.3251 20.2989 63.4042 21.1095 63.4832 21.9201C63.5129 22.1919 63.5327 22.4687 63.5969 22.7356C63.8243 23.6401 64.3927 24.2727 65.2625 24.594C66.6811 25.1179 68.1737 24.426 68.7223 23.0173C68.7866 22.8493 68.8311 22.6714 68.8558 22.4934C68.8953 22.2068 68.9151 21.9201 68.9299 21.6285C69.0189 20.1853 69.0979 18.742 69.182 17.2988C69.2166 16.7156 69.2512 16.1275 69.2759 15.5442C69.3105 14.8177 69.8196 14.2542 70.5609 14.1653C71.1788 14.0911 71.8411 14.442 72.0783 15.1439C72.1327 15.2971 72.1475 15.4701 72.1574 15.6332C72.2167 16.7799 72.2711 17.9315 72.3254 19.0781H72.3353Z" fill="black"/>
<path d="M143.72 28.3503C139.796 28.3404 136.642 25.1722 136.652 21.2677C136.662 17.4273 139.761 14.2295 143.72 14.2295C147.664 14.2295 150.788 17.4075 150.793 21.2924C150.793 25.192 147.62 28.3602 143.72 28.3503ZM143.7 24.9795C145.727 24.9993 147.392 23.3682 147.412 21.327C147.432 19.2659 145.771 17.6201 143.745 17.6102C141.709 17.6003 140.058 19.2264 140.038 21.2677C140.018 23.3139 141.644 24.9647 143.705 24.9844L143.7 24.9795Z" fill="black"/>
</g>
<defs>
<clipPath id="clip0_132_48">
<rect width="166.563" height="43" fill="white" transform="translate(0.0144043)"/>
</clipPath>
</defs>
</svg>
