<svg width="26" height="26" viewBox="0 0 26 26" fill="none" xmlns="http://www.w3.org/2000/svg">
<path d="M1.90238 19.25H23.8693C24.4423 19.25 24.8697 18.7221 24.752 18.1612C24.0254 14.698 21.8205 11.7796 18.8287 10.0936L20.7066 6.70531C20.8336 6.47594 20.7507 6.18684 20.5214 6.05972C20.2914 5.93232 20.0028 6.01554 19.8756 6.24491L17.9836 9.65872C16.4339 8.9396 14.7068 8.53793 12.8858 8.53793C11.0647 8.53793 9.33769 8.9396 7.788 9.65872L5.89587 6.2448C5.76869 6.01532 5.47959 5.93254 5.25033 6.05966C5.0209 6.18673 4.93806 6.47583 5.06513 6.7052L6.94303 10.0935C3.95113 11.7796 1.74624 14.6979 1.01963 18.1612C0.901823 18.7221 1.32924 19.25 1.90238 19.25Z" stroke="#D2D2D2" stroke-width="2"/>
</svg>
