<svg width="97" height="57" viewBox="0 0 97 57" fill="none" xmlns="http://www.w3.org/2000/svg">
<path d="M84.9144 32.934C83.0968 32.934 81.5392 31.1714 81.5392 26.6065C81.5392 21.5245 84.603 14.5746 89.3302 14.5746C91.4587 14.5746 92.3421 16.7005 92.3421 19.5012C92.3421 24.9465 89.0188 32.934 84.9144 32.934ZM64.9712 28.8371C63.7393 30.7563 61.8216 32.1048 60.362 32.1048C58.9469 32.1048 57.8973 30.9625 57.8973 28.3702C57.8973 22.717 59.8594 14.5217 65.3821 14.5217C66.0669 14.5217 66.7506 14.6264 67.5276 14.9373L64.9712 28.8371ZM55.2959 52.3844C54.7032 52.3844 53.4258 51.7614 53.4258 49.9459C53.4258 46.4715 57.624 42.5809 62.6441 40.299C60.3165 48.8058 58.4454 52.3844 55.2959 52.3844ZM30.9808 14.6772C31.8636 14.6772 32.4864 15.508 32.4864 16.7005C32.4864 20.0718 29.0588 23.7022 24.0202 26.8662C24.1764 23.2358 25.8388 14.6772 30.9808 14.6772ZM14.0494 3.42259C14.6197 3.42259 14.9322 3.68119 14.9322 4.56381C14.9322 6.32693 13.0103 13.692 8.43929 22.1458C10.205 11.2028 12.335 3.42259 14.0494 3.42259ZM88.1868 10.6327C80.3434 10.6327 74.8901 20.4345 74.8901 28.266C74.8901 29.0206 74.9521 29.7584 75.0649 30.4723C73.5269 31.7552 71.5202 33.0207 69.4431 34.1789C69.5803 33.5051 69.7169 32.779 69.8536 32.0524L73.6879 11.5142C73.1398 11.0991 72.3639 10.8394 71.543 10.8394C70.4017 10.8394 69.1699 11.3064 68.394 12.3429C67.2532 11.2027 65.7926 10.6327 63.7393 10.6327C57.3957 10.6327 52.239 19.6561 52.239 28.7335C52.239 29.2253 52.2607 29.7642 52.3126 30.3231C50.9865 31.4749 49.0132 32.5199 47.2888 32.5199C45.9378 32.5199 45.1063 31.5855 45.7302 28.6811L48.7945 14.1071H51.0808C52.6902 14.1071 53.5206 12.7586 53.2611 11.0986H49.4702L50.9245 4.25286C50.3007 3.8372 49.4173 3.5786 48.4836 3.5786C46.613 3.5786 44.6397 4.46016 44.1197 6.84625L43.1855 11.0986H42.1458C40.5364 11.0986 39.7049 12.4476 39.9644 14.1071H42.5616L39.7531 27.3395C37.5171 30.293 32.7433 32.934 29.0069 32.934C26.6174 32.934 24.696 31.8964 24.1764 29.0963C34.2007 23.5467 36.5384 20.0194 36.5384 15.6116C36.5384 13.2773 35.3442 10.6321 30.6164 10.6321C22.0469 10.6321 17.5797 21.4198 17.5797 28.1629C17.5797 28.9027 17.638 29.5907 17.7396 30.2369C14.8115 31.5109 11.9198 32.4157 10.3093 32.4157C8.4912 32.4157 7.14017 31.3782 7.50454 28.6811C7.55591 28.0587 7.66077 27.3844 7.76457 26.7625C14.4646 16.545 17.8408 8.24658 17.8408 4.20103C17.8408 1.50399 16.1265 0 13.6855 0C6.88121 0 3.40119 10.9949 1.01162 29.7705C0.335851 35.2159 3.08978 37.447 6.7255 37.447C9.89835 37.447 14.3867 35.2392 18.4821 32.7769C19.9158 35.9531 22.9197 37.4465 26.4098 37.4465C30.5597 37.4465 35.3749 35.3322 38.9476 31.6616C38.5594 35.9171 40.4998 37.447 43.2887 37.447C46.5781 37.447 50.2832 35.3153 52.7411 32.7605C53.4152 35.2275 54.8997 37.447 57.9428 37.447C60.4076 37.447 62.7352 35.4761 64.6063 32.623C64.2408 34.0752 63.9215 35.3719 63.6016 36.6681C57.4413 39.2614 50.3213 44.1886 50.3213 50.6202C50.3213 54.9254 52.9227 57 55.7074 57C63.6016 57 66.7972 46.7825 68.8505 37.1355C71.6929 35.6337 74.4299 33.6532 75.6141 32.6294C76.66 35.4459 78.8796 37.447 82.5248 37.447C90.6797 37.447 96.2368 27.6441 96.2368 19.9163C96.2368 14.8332 93.8483 10.6327 88.1868 10.6327Z" fill="#222222"/>
</svg>
