<svg width="146" height="33" viewBox="0 0 146 33" fill="none" xmlns="http://www.w3.org/2000/svg">
<g clip-path="url(#clip0_126_982)">
<path fill-rule="evenodd" clip-rule="evenodd" d="M7.703 4.658V32.5H3.557V4.658C3.55726 4.59431 3.54498 4.53119 3.52085 4.47225C3.49672 4.4133 3.46121 4.35969 3.41636 4.31447C3.37151 4.26924 3.31819 4.2333 3.25945 4.20868C3.20071 4.18407 3.13769 4.17126 3.074 4.171H0V0.501H11.131V4.171H8.186C8.12231 4.17126 8.05929 4.18407 8.00055 4.20868C7.94181 4.2333 7.88849 4.26924 7.84364 4.31447C7.79879 4.35969 7.76328 4.4133 7.73915 4.47225C7.71502 4.53119 7.70274 4.59431 7.703 4.658ZM105.067 4.658V32.5H100.921V4.658C100.921 4.59431 100.909 4.53119 100.885 4.47225C100.861 4.4133 100.825 4.35969 100.78 4.31447C100.736 4.26924 100.682 4.2333 100.623 4.20868C100.565 4.18407 100.502 4.17126 100.438 4.171H97.365V0.501H108.495V4.171H105.55C105.486 4.17126 105.423 4.18407 105.365 4.20868C105.306 4.2333 105.252 4.26924 105.208 4.31447C105.163 4.35969 105.127 4.4133 105.103 4.47225C105.079 4.53119 105.067 4.59431 105.067 4.658ZM49.889 28.828V32.5H43.63C43.2854 32.4987 42.9445 32.4295 42.6266 32.2964C42.3087 32.1634 42.0202 31.969 41.7775 31.7244C41.5347 31.4798 41.3426 31.1898 41.2119 30.8709C41.0813 30.5521 41.0147 30.2106 41.016 29.866V0.501H45.2V28.341C45.2 28.611 45.417 28.829 45.684 28.829H49.89L49.889 28.828ZM35.496 18.336H31.29C31.2262 18.3363 31.1631 18.3491 31.1043 18.3738C31.0455 18.3985 30.9921 18.4345 30.9473 18.4798C30.9024 18.5251 30.8669 18.5789 30.8429 18.6379C30.8188 18.697 30.8066 18.7602 30.807 18.824V28.343C30.807 28.612 31.023 28.83 31.29 28.83H35.496V32.5H29.24C28.8954 32.4987 28.5545 32.4295 28.2366 32.2964C27.9187 32.1634 27.6302 31.969 27.3875 31.7244C27.1447 31.4798 26.9526 31.1898 26.8219 30.8709C26.6913 30.5521 26.6247 30.2106 26.626 29.866V3.134C26.6247 2.78941 26.6913 2.44794 26.8219 2.12907C26.9526 1.81021 27.1447 1.52021 27.3875 1.27562C27.6302 1.03103 27.9187 0.836643 28.2366 0.703562C28.5545 0.570481 28.8954 0.501311 29.24 0.5L35.497 0.5V4.171H31.29C31.2263 4.17126 31.1633 4.18407 31.1045 4.20868C31.0458 4.2333 30.9925 4.26924 30.9476 4.31447C30.9028 4.35969 30.8673 4.4133 30.8432 4.47225C30.819 4.53119 30.8067 4.59431 30.807 4.658V14.178C30.807 14.446 31.023 14.664 31.29 14.664H35.496V18.335V18.336ZM19.75 0.5H23.939V32.5H19.75V18.823C19.7503 18.7593 19.738 18.6962 19.7138 18.6372C19.6897 18.5783 19.6542 18.5247 19.6094 18.4795C19.5645 18.4342 19.5112 18.3983 19.4524 18.3737C19.3937 18.3491 19.3307 18.3363 19.267 18.336H17.03C16.9663 18.3363 16.9033 18.3491 16.8445 18.3737C16.7858 18.3983 16.7325 18.4342 16.6876 18.4795C16.6428 18.5247 16.6073 18.5783 16.5832 18.6372C16.559 18.6962 16.5467 18.7593 16.547 18.823V32.5H12.359V0.5H16.547V14.177C16.547 14.447 16.763 14.665 17.03 14.665H19.267C19.3308 14.6647 19.3939 14.6519 19.4527 14.6272C19.5115 14.6025 19.5649 14.5665 19.6097 14.5212C19.6546 14.4759 19.6901 14.4221 19.7141 14.3631C19.7382 14.304 19.7504 14.2408 19.75 14.177V0.5ZM91.898 4.171C91.8343 4.17126 91.7713 4.18407 91.7125 4.20868C91.6538 4.2333 91.6005 4.26924 91.5556 4.31447C91.5108 4.35969 91.4753 4.4133 91.4511 4.47225C91.427 4.53119 91.4147 4.59431 91.415 4.658V14.665H96.105V18.335H91.415V32.5H87.233V18.336H52.838C52.6621 18.3368 52.4936 18.4074 52.3697 18.5322C52.2458 18.6571 52.1765 18.8261 52.177 19.002L52.296 20.528C52.296 21.442 52.946 22.226 53.838 22.388L72.957 28.332V32.422L51.287 26.312C49.531 26.017 48.294 24.902 47.92 22.79C47.8892 22.6037 47.8705 22.4157 47.864 22.227L47.747 20.07C47.6392 17.6912 47.6402 15.3087 47.75 12.93L47.851 11.156C47.872 10.5298 48.0147 9.9137 48.271 9.342C48.836 8.125 49.893 7.117 51.256 6.877L72.956 0.532V4.623L53.82 10.81C53.3899 10.8941 53.0025 11.1254 52.7244 11.4641C52.4463 11.8028 52.2948 12.2278 52.296 12.666L52.176 14.034C52.176 14.402 52.473 14.701 52.838 14.701L87.233 14.669V3.134C87.2303 2.43824 87.5041 1.76991 87.9941 1.27597C88.4841 0.782026 89.1502 0.502912 89.846 0.5L96.104 0.5V4.171H91.898ZM142.571 4.658V32.5H138.426V4.658C138.426 4.59431 138.414 4.53119 138.39 4.47225C138.366 4.4133 138.33 4.35969 138.285 4.31447C138.241 4.26924 138.187 4.2333 138.128 4.20868C138.07 4.18407 138.007 4.17126 137.943 4.171H134.869V0.501H146V4.171H143.055C142.991 4.17113 142.928 4.18384 142.869 4.2084C142.81 4.23295 142.757 4.26888 142.712 4.31411C142.667 4.35935 142.631 4.41301 142.607 4.47202C142.583 4.53102 142.571 4.59422 142.571 4.658ZM133.956 4.171H133.008C132.931 4.17126 132.854 4.18673 132.783 4.21652C132.712 4.24632 132.647 4.28985 132.593 4.34463C132.538 4.39942 132.495 4.46439 132.466 4.53583C132.437 4.60727 132.422 4.68378 132.422 4.761V28.24C132.422 28.566 132.684 28.83 133.008 28.83H133.956V32.5H126.7V28.83H127.648C127.725 28.8297 127.802 28.8143 127.873 28.7845C127.944 28.7547 128.009 28.7112 128.063 28.6564C128.118 28.6016 128.161 28.5366 128.19 28.4652C128.219 28.3937 128.234 28.3172 128.234 28.24V4.76C128.234 4.68278 128.219 4.60627 128.19 4.53483C128.161 4.46339 128.118 4.39842 128.063 4.34363C128.009 4.28885 127.944 4.24532 127.873 4.21552C127.802 4.18573 127.725 4.17026 127.648 4.17H126.7V0.501H133.956V4.171ZM121.17 27.285C121.17 29.223 119.514 29.145 119.514 29.145H118.733C118.669 29.1447 118.606 29.1319 118.548 29.1073C118.489 29.0827 118.435 29.0468 118.391 29.0015C118.346 28.9563 118.31 28.9027 118.286 28.8438C118.262 28.7848 118.25 28.7217 118.25 28.658V19.008C118.25 18.738 118.466 18.52 118.733 18.52H119.653C121.17 18.52 121.17 20.225 121.17 20.225V27.285ZM118.25 4.342C118.25 4.072 118.466 3.855 118.733 3.855H119.514C119.514 3.855 121.17 3.777 121.17 5.715V12.775C121.17 12.775 121.17 14.48 119.654 14.48H118.733C118.669 14.4797 118.606 14.4669 118.547 14.4422C118.489 14.4175 118.435 14.3815 118.39 14.3362C118.345 14.2909 118.31 14.2371 118.286 14.1781C118.262 14.119 118.25 14.0558 118.25 13.992V4.342ZM121.559 16.975C121.455 16.9473 121.364 16.8861 121.298 16.8009C121.233 16.7158 121.197 16.6114 121.197 16.504V16.496C121.197 16.274 121.347 16.082 121.559 16.025C122.456 15.782 124.744 14.905 125.181 12.197C125.728 8.812 125.081 2.931 123.463 1.674C121.952 0.5 120.692 0.5 120.306 0.5H116.674C116.329 0.501311 115.988 0.570481 115.671 0.703562C115.353 0.836643 115.064 1.03103 114.821 1.27562C114.579 1.52021 114.387 1.81021 114.256 2.12907C114.125 2.44794 114.059 2.78941 114.06 3.134V28.829C114.06 30.856 115.691 32.5 117.703 32.5H120.306C120.691 32.5 121.951 32.5 123.462 31.326C125.08 30.069 125.727 24.188 125.18 20.803C124.743 18.095 122.456 17.218 121.559 16.975Z" fill="#E1E1E1"/>
</g>
<defs>
<clipPath id="clip0_126_982">
<rect width="146" height="32" fill="white" transform="translate(0 0.5)"/>
</clipPath>
</defs>
</svg>
