<svg width="147" height="23" viewBox="0 0 147 23" fill="none" xmlns="http://www.w3.org/2000/svg">
<path d="M142.111 14.1451C142.721 14.4442 143.181 14.9833 143.378 15.6338C143.599 16.2668 143.56 16.9622 143.269 17.5666C143.117 17.8736 142.906 18.1485 142.649 18.3756C142.408 18.5993 142.12 18.7674 141.807 18.8686C141.489 18.9738 141.152 19.0098 140.819 18.9743C140.481 18.9473 140.152 18.8523 139.851 18.6949L138.337 21.7398C141.252 23.2077 144.807 22.0377 146.277 19.1256C146.993 17.7055 147.106 16.0543 146.589 14.5499C146.106 13.0505 145.024 11.8159 143.601 11.1407L139.086 8.8762C138.461 8.58611 137.988 8.04303 137.787 7.38414C137.577 6.7438 137.638 6.04555 137.953 5.45075C138.235 4.84864 138.752 4.38764 139.382 4.17682C139.7 4.05763 140.04 4.01322 140.378 4.04752C140.716 4.0745 141.045 4.16951 141.346 4.32636L142.86 1.27758C141.454 0.552354 139.808 0.446662 138.321 0.986368C136.831 1.46929 135.602 2.54083 134.92 3.95082C134.199 5.35686 134.08 6.99735 134.592 8.49222C135.077 9.99103 136.161 11.225 137.584 11.9008L142.111 14.1451ZM88.4759 11.9458C89.2951 10.786 89.7212 9.39398 89.6908 7.97444C89.7195 6.1192 88.9881 4.33255 87.6664 3.02882C86.3694 1.69023 84.5743 0.946452 82.7106 0.974562L73.4957 1.00267V13.611C73.5761 16.5024 71.2947 18.9114 68.4 18.9912C65.5053 19.0716 63.094 16.793 63.0131 13.9022C63.0102 13.805 63.0102 13.7083 63.0131 13.611V0.974562H59.4864V13.611C59.4864 18.4352 63.4021 22.3464 68.2319 22.3464C73.0617 22.3464 76.9774 18.4352 76.9774 13.611V4.31062H82.6904C83.6461 4.33648 84.5518 4.74126 85.209 5.43501C85.8758 6.11583 86.2339 7.04232 86.1968 7.99468C86.1822 9.91626 84.612 11.4955 82.6904 11.5208L79.5685 11.4724L85.6706 22.0231H89.6908L85.3788 14.4728C86.6404 13.9596 87.7198 13.0792 88.4759 11.9458ZM99.3836 0.974562V4.31062H106.392V22.0231H109.935V4.31062H116.939V0.974562H99.3836ZM38.7853 0.974562V4.31062H45.7936V22.0231H49.3366V4.31062H56.3449V0.994239L38.7853 0.974562ZM31.6432 0.61813L20.9379 22.0231H24.9098L31.6635 8.27353L38.3884 22.0231H42.3806L31.6432 0.61813ZM92.7801 22.0231H96.3107V0.994239H92.7801V22.0231ZM124.721 0.602389L114.004 22.0231H117.972L124.721 8.27353L131.446 22.0231H135.442L124.721 0.602389ZM17.8728 4.24203V22.415L3.88434 8.83966V22.0557H0.35376V0.584961L14.3827 14.2339V4.24203H17.8728Z" fill="#222222"/>
</svg>
