<svg width="160" height="39" viewBox="0 0 160 39" fill="none" xmlns="http://www.w3.org/2000/svg">
<g clip-path="url(#clip0_132_3)">
<path d="M88.8875 10.9285H92.9668L96.4745 20.742C96.7117 21.3472 96.9097 21.8645 97.0704 22.2904C97.231 22.72 97.3655 23.0898 97.4719 23.4055C97.5784 23.7174 97.6755 23.9976 97.7652 24.2423C97.8548 24.487 97.9333 24.7335 98.0061 24.9801H98.0416C98.1126 24.7428 98.1892 24.5 98.2732 24.2497C98.3573 24.0013 98.4544 23.7174 98.5665 23.4055C98.6786 23.0898 98.8149 22.72 98.9774 22.2904C99.138 21.8645 99.3248 21.3472 99.5377 20.742L103.008 10.9285H107.052L100.018 29.0239H95.9945L88.8875 10.9285Z" fill="#222222"/>
<path d="M111.848 23.5549C111.848 24.5299 112.207 25.2397 112.928 25.6824C113.647 26.1288 114.501 26.3511 115.489 26.3511C116.344 26.3511 117.11 26.1885 117.783 25.8636C118.455 25.5367 118.987 25.165 119.38 24.7503V21.0801C119.191 20.9624 118.851 20.841 118.363 20.714C117.874 20.5926 117.228 20.5291 116.417 20.5291C115.095 20.5291 114.004 20.7887 113.141 21.3098C112.278 21.8365 111.848 22.5818 111.848 23.5549ZM108.018 23.6633C108.018 22.6901 108.223 21.8272 108.632 21.0707C109.039 20.3199 109.594 19.6867 110.298 19.1749C111.002 18.6631 111.822 18.2765 112.758 18.0094C113.692 17.7423 114.691 17.6078 115.758 17.6078C116.591 17.6078 117.325 17.6806 117.971 17.8301C118.614 17.9795 119.084 18.1121 119.38 18.2298V17.1987C119.38 16.0108 119.01 15.146 118.266 14.5987C117.519 14.0515 116.535 13.7788 115.311 13.7788C114.243 13.7788 113.242 13.9543 112.306 14.3036C111.368 14.6548 110.657 15.0377 110.171 15.4523H109.926V11.9969C110.091 11.8792 110.364 11.7279 110.741 11.5449C111.122 11.3599 111.566 11.1862 112.074 11.0275C112.586 10.8668 113.147 10.7286 113.765 10.611C114.381 10.4914 115.033 10.4316 115.72 10.4316C116.815 10.4316 117.82 10.5624 118.735 10.8295C119.65 11.0985 120.433 11.4982 121.087 12.0342C121.74 12.5684 122.258 13.2352 122.641 14.0365C123.018 14.8378 123.209 15.7736 123.209 16.8439V29.0239H119.738V27.5633C119.57 27.7538 119.327 27.9648 119.008 28.1946C118.685 28.4262 118.306 28.6391 117.87 28.8371C117.437 29.0332 116.942 29.1995 116.382 29.334C115.821 29.4722 115.197 29.5413 114.508 29.5413C113.586 29.5413 112.73 29.4068 111.947 29.1378C111.161 28.8707 110.476 28.4897 109.898 27.9891C109.318 27.4923 108.862 26.8778 108.522 26.1475C108.188 25.4171 108.018 24.5897 108.018 23.6633Z" fill="#222222"/>
<path d="M131.66 4.58911H127.83V29.022H131.66V4.58911Z" fill="#222222"/>
<path d="M136.382 10.9286H140.211V29.0241H136.382V10.9286ZM136.027 6.22735C136.027 5.5512 136.251 4.99832 136.702 4.57059C137.154 4.14473 137.693 3.92993 138.323 3.92993C138.952 3.92993 139.494 4.14473 139.944 4.57059C140.394 4.99832 140.622 5.5512 140.622 6.22735C140.622 6.9035 140.394 7.4545 139.944 7.88223C139.494 8.31183 138.952 8.52476 138.323 8.52476C137.693 8.52476 137.154 8.31183 136.702 7.88223C136.251 7.4545 136.027 6.9035 136.027 6.22735Z" fill="#222222"/>
<path d="M147.477 23.5549C147.477 24.5299 147.836 25.2397 148.557 25.6824C149.278 26.1288 150.129 26.3511 151.118 26.3511C151.973 26.3511 152.741 26.1885 153.411 25.8636C154.085 25.5367 154.618 25.165 155.01 24.7503V21.0801C154.82 20.9624 154.48 20.841 153.992 20.714C153.503 20.5926 152.856 20.5291 152.048 20.5291C150.723 20.5291 149.634 20.7887 148.77 21.3098C147.907 21.8365 147.477 22.5818 147.477 23.5549ZM143.646 23.6633C143.646 22.6901 143.852 21.8272 144.261 21.0707C144.67 20.3199 145.223 19.6867 145.929 19.1749C146.631 18.6631 147.451 18.2765 148.387 18.0094C149.321 17.7423 150.32 17.6078 151.386 17.6078C152.22 17.6078 152.957 17.6806 153.6 17.8301C154.242 17.9795 154.713 18.1121 155.01 18.2298V17.1987C155.01 16.0108 154.64 15.146 153.895 14.5987C153.15 14.0515 152.163 13.7788 150.94 13.7788C149.872 13.7788 148.871 13.9543 147.935 14.3036C146.997 14.6548 146.285 15.0377 145.8 15.4523H145.555V11.9969C145.72 11.8792 145.992 11.7279 146.371 11.5449C146.751 11.3599 147.195 11.1862 147.703 11.0275C148.217 10.8668 148.775 10.7286 149.394 10.611C150.01 10.4914 150.662 10.4316 151.349 10.4316C152.444 10.4316 153.449 10.5624 154.364 10.8295C155.279 11.0985 156.062 11.4982 156.715 12.0342C157.373 12.5684 157.888 13.2352 158.269 14.0365C158.647 14.8378 158.837 15.7736 158.837 16.8439V29.0239H155.367V27.5633C155.199 27.7538 154.956 27.9648 154.635 28.1946C154.313 28.4262 153.934 28.6391 153.501 28.8371C153.066 29.0332 152.569 29.1995 152.01 29.334C151.45 29.4722 150.826 29.5413 150.137 29.5413C149.214 29.5413 148.362 29.4068 147.576 29.1378C146.79 28.8707 146.106 28.4897 145.527 27.9891C144.948 27.4923 144.49 26.8778 144.154 26.1475C143.816 25.4171 143.646 24.5897 143.646 23.6633Z" fill="#222222"/>
<path d="M52.2557 24.3806C52.6013 24.7486 53.1616 25.1296 53.9367 25.5293C54.7156 25.9272 55.6271 26.1252 56.6694 26.1252C57.5491 26.1252 58.3579 25.9757 59.1013 25.6713C59.8428 25.3687 60.4741 24.9428 60.9952 24.3974C61.5182 23.8502 61.9254 23.2002 62.2149 22.4474C62.5063 21.691 62.652 20.8616 62.652 19.9595C62.652 19.0573 62.5119 18.2262 62.2317 17.4716C61.9553 16.7188 61.5556 16.0726 61.0326 15.5384C60.5077 15.0023 59.8764 14.5895 59.1368 14.3C58.3934 14.0068 57.5715 13.8629 56.6694 13.8629C55.6271 13.8629 54.7287 14.0329 53.976 14.371C53.2195 14.7072 52.6498 15.0733 52.2557 15.4655V24.3806ZM48.4304 35.044V10.9435H51.9027V12.4023C52.3398 11.9895 53.0253 11.5599 53.9573 11.1135C54.8875 10.669 56.038 10.4448 57.3997 10.4448C58.6549 10.4448 59.8334 10.6746 60.9373 11.1322C62.0412 11.5879 63.005 12.2323 63.8287 13.0654C64.6487 13.8966 65.2987 14.8921 65.7675 16.0557C66.2419 17.2194 66.4773 18.5101 66.4773 19.924C66.4773 21.3585 66.2363 22.6604 65.7507 23.8352C65.2688 25.0082 64.6076 26.0206 63.7745 26.8779C62.9415 27.7296 61.9721 28.3871 60.8682 28.8522C59.7625 29.3116 58.6082 29.5433 57.3997 29.5433C56.1072 29.5433 55.0313 29.3359 54.1721 28.9231C53.3092 28.5104 52.6704 28.1331 52.2557 27.7894V35.044H48.4304Z" fill="#222222"/>
<path d="M69.5051 29.0278V10.9436H79.1692V14.2907H73.3323V29.0278H69.5051Z" fill="#222222"/>
<path d="M82.3893 10.9435H86.2165V29.0277H82.3893V10.9435ZM82.0344 6.2459C82.0344 5.56788 82.2586 5.01688 82.7087 4.58915C83.1589 4.16329 83.7005 3.94849 84.3281 3.94849C84.9576 3.94849 85.4974 4.16329 85.9494 4.58915C86.3995 5.01688 86.6237 5.56788 86.6237 6.2459C86.6237 6.92018 86.3995 7.47119 85.9494 7.89892C85.4974 8.32852 84.9576 8.53958 84.3281 8.53958C83.7005 8.53958 83.1589 8.32852 82.7087 7.89892C82.2586 7.47119 82.0344 6.92018 82.0344 6.2459Z" fill="#222222"/>
<path d="M19.9891 0C14.6416 5.2467 16.5 10.9249 17.2136 12.5424C17.716 13.6556 19.5782 16.9691 19.9854 17.7163C20.3926 16.9691 22.2585 13.6556 22.761 12.5424C23.4763 10.9249 25.333 5.2467 19.9891 0Z" fill="#222222"/>
<path d="M3.95972 7.71971C4.72739 15.1686 10.3252 17.2587 12.0362 17.7088C13.2166 18.0095 16.9728 18.6222 17.8077 18.766C17.479 17.9834 16.052 14.4551 15.4935 13.3736C14.6754 11.8028 11.3936 6.81009 3.95972 7.71971Z" fill="#222222"/>
<path d="M-0.000244141 25.0642C6.30551 29.1099 11.4271 26.0336 12.8466 24.9764C13.8179 24.2424 16.6364 21.6872 17.2715 21.1231C16.4534 20.8915 12.8055 19.81 11.6138 19.5691C9.87491 19.2347 3.92591 18.6856 -0.000244141 25.0642Z" fill="#222222"/>
<path d="M11.0928 38.972C18.1849 36.5644 18.9731 30.6452 19.0329 28.8746C19.0628 27.6567 18.8237 23.8613 18.7808 23.0115C18.0897 23.5083 14.9685 25.6825 14.0365 26.4669C12.6898 27.6194 8.55259 31.9247 11.0928 38.972Z" fill="#222222"/>
<path d="M28.8837 38.972C31.4221 31.9247 27.2867 27.6194 25.9382 26.4669C25.0061 25.6825 21.8906 23.5064 21.1976 23.0115C21.1547 23.8613 20.9119 27.6567 20.9417 28.8746C21.0015 30.6452 21.7897 36.5644 28.8837 38.972Z" fill="#222222"/>
<path d="M39.9749 25.0642C36.0488 18.6856 30.1016 19.2347 28.3627 19.5691C27.1692 19.81 23.5232 20.8878 22.7051 21.1194C23.3401 21.6835 26.1568 24.2424 27.1281 24.9764C28.5495 26.0336 33.6692 29.1099 39.9749 25.0642Z" fill="#222222"/>
<path d="M36.017 7.71971C28.5831 6.81009 25.3013 11.8028 24.4814 13.3736C23.9229 14.4551 22.494 17.9815 22.1653 18.7641C23.0002 18.6184 26.7582 18.0095 27.9387 17.7088C29.6534 17.2587 35.2493 15.1686 36.017 7.71971Z" fill="#222222"/>
</g>
<defs>
<clipPath id="clip0_132_3">
<rect width="159.138" height="39" fill="white"/>
</clipPath>
</defs>
</svg>
