<svg width="26" height="18" viewBox="0 0 26 18" fill="none" xmlns="http://www.w3.org/2000/svg">
<path id="&#226;&#128;&#156;" d="M11.9492 0L11.6152 1.48438C10.3535 1.60807 9.20312 1.95443 8.16406 2.52344C7.125 3.09245 6.29622 3.82227 5.67773 4.71289C5.05924 5.57878 4.75 6.56836 4.75 7.68164C4.75 8.99284 5.14583 10.069 5.9375 10.9102C6.75391 11.7266 7.84245 12.2708 9.20312 12.543C9.17839 13.9779 8.74544 15.2396 7.9043 16.3281C7.06315 17.4167 5.9375 17.9609 4.52734 17.9609C3.21615 17.9609 2.1276 17.4538 1.26172 16.4395C0.420573 15.4004 0 13.9655 0 12.1348C0 9.95768 0.519531 7.97852 1.55859 6.19727C2.6224 4.41602 4.05729 2.96875 5.86328 1.85547C7.66927 0.742188 9.69792 0.123698 11.9492 0ZM25.4941 0L25.1602 1.48438C23.8984 1.60807 22.748 1.95443 21.709 2.52344C20.6699 3.09245 19.8411 3.82227 19.2227 4.71289C18.6042 5.57878 18.2949 6.56836 18.2949 7.68164C18.2949 8.99284 18.6908 10.069 19.4824 10.9102C20.2988 11.7266 21.3874 12.2708 22.748 12.543C22.7233 13.9779 22.2904 15.2396 21.4492 16.3281C20.6081 17.4167 19.4824 17.9609 18.0723 17.9609C16.7611 17.9609 15.6725 17.4538 14.8066 16.4395C13.9655 15.4004 13.5449 13.9655 13.5449 12.1348C13.5449 9.95768 14.0645 7.97852 15.1035 6.19727C16.1673 4.41602 17.6022 2.96875 19.4082 1.85547C21.2142 0.742188 23.2428 0.123698 25.4941 0Z" fill="#DEDEDE"/>
</svg>
