<svg width="58" height="98" viewBox="0 0 58 98" fill="none" xmlns="http://www.w3.org/2000/svg">
<g clip-path="url(#clip0_126_948)">
<path fill-rule="evenodd" clip-rule="evenodd" d="M54.612 37.028V64H50.515V37.028C50.5142 36.9022 50.4635 36.7818 50.3741 36.6934C50.2847 36.6049 50.1638 36.5555 50.038 36.556H47V33H58V36.556H55.09C55.0276 36.5556 54.9658 36.5675 54.908 36.591C54.8502 36.6145 54.7976 36.6492 54.7532 36.693C54.7089 36.7368 54.6735 36.789 54.6493 36.8465C54.6251 36.9039 54.6124 36.9656 54.612 37.028ZM12 60.444V64H5.652C4.187 64 3 62.858 3 61.448V33H7.242V59.972C7.242 60.232 7.462 60.444 7.732 60.444H12ZM34.712 17.216H30.582C30.5199 17.2156 30.4584 17.2275 30.4009 17.2509C30.3434 17.2743 30.2911 17.3088 30.247 17.3525C30.2029 17.3961 30.1678 17.4481 30.1438 17.5053C30.1198 17.5625 30.1073 17.6239 30.107 17.686V26.874C30.107 27.134 30.319 27.344 30.581 27.344H34.711V30.888H28.567C27.149 30.888 26 29.749 26 28.345V2.543C26 1.137 27.15 0 28.567 0H34.712V3.543H30.582C30.5199 3.5426 30.4584 3.55446 30.4009 3.57787C30.3434 3.60129 30.2911 3.63582 30.247 3.67947C30.2029 3.72313 30.1678 3.77506 30.1438 3.83229C30.1198 3.88952 30.1073 3.95093 30.107 4.013V13.202C30.107 13.462 30.319 13.672 30.581 13.672H34.711V17.216H34.712ZM10.842 92.966V86.152C10.842 86.152 10.842 84.506 9.385 84.506H8.501C8.43967 84.5064 8.37902 84.5189 8.32251 84.5427C8.266 84.5665 8.21474 84.6013 8.17166 84.6449C8.12857 84.6885 8.0945 84.7402 8.0714 84.7971C8.04829 84.8539 8.0366 84.9147 8.037 84.976V94.292C8.037 94.552 8.245 94.762 8.501 94.762H9.251C9.251 94.762 10.841 94.837 10.841 92.966H10.842ZM8.036 70.82V80.135C8.036 80.395 8.244 80.605 8.5 80.605H9.384C10.84 80.605 10.84 78.96 10.84 78.96V72.145C10.84 70.275 9.25 70.35 9.25 70.35H8.5C8.43867 70.3504 8.37802 70.3629 8.32151 70.3867C8.26501 70.4105 8.21374 70.4453 8.17066 70.4889C8.12757 70.5325 8.0935 70.5843 8.0704 70.6411C8.04729 70.6979 8.03561 70.7587 8.036 70.82ZM11.213 83.014C12.075 83.248 14.271 84.095 14.691 86.709C15.216 89.976 14.595 95.652 13.041 96.866C11.592 98 10.382 98 10.012 98H7.513C5.582 98 4.016 96.414 4.016 94.456V69.655C4.016 68.251 5.139 67.112 6.526 67.112H10.012C10.382 67.112 11.592 67.112 13.042 68.245C14.596 69.459 15.217 75.135 14.692 78.403C14.272 81.016 12.076 81.863 11.214 82.097C11.1142 82.1242 11.0262 82.1835 10.9635 82.2658C10.9008 82.348 10.8669 82.4486 10.867 82.552V82.56C10.867 82.774 11.01 82.96 11.214 83.015L11.213 83.014ZM31.59 71.125V98H27.61V71.126C27.61 70.866 27.402 70.656 27.145 70.656H24.194V67.112H34.882V70.656H32.054C31.9927 70.6564 31.932 70.6689 31.8755 70.6927C31.819 70.7165 31.7677 70.7513 31.7247 70.7949C31.6816 70.8385 31.6475 70.8903 31.6244 70.9471C31.6013 71.0039 31.5896 71.0637 31.59 71.125ZM7.533 4.052V30.926H3.479V4.052C3.479 3.792 3.267 3.582 3.006 3.582H0V0.038H10.886V3.582H8.006C7.744 3.582 7.533 3.792 7.533 4.052ZM19.022 0H23V31H19.022V17.75C19.0228 17.6888 19.0115 17.628 18.9888 17.5712C18.9661 17.5144 18.9325 17.4626 18.8898 17.4187C18.8471 17.3749 18.7961 17.3399 18.7399 17.3158C18.6836 17.2916 18.6232 17.2788 18.562 17.278H16.438C16.3768 17.2788 16.3164 17.2916 16.2601 17.3158C16.2039 17.3399 16.1529 17.3749 16.1102 17.4187C16.0675 17.4626 16.0339 17.5144 16.0112 17.5712C15.9885 17.628 15.9772 17.6888 15.978 17.75V31H12V0H15.978V13.25C15.978 13.51 16.184 13.722 16.438 13.722H18.563C18.816 13.722 19.022 13.51 19.022 13.25V0ZM41.835 36.556C41.7725 36.5555 41.7106 36.5673 41.6527 36.5907C41.5948 36.6142 41.5421 36.6488 41.4976 36.6926C41.4531 36.7365 41.4177 36.7887 41.3934 36.8462C41.3691 36.9038 41.3564 36.9655 41.356 37.028V46.722H46V50.278H41.356V64H37.216V50.278H15.121C15.0355 50.2772 14.9506 50.2933 14.8713 50.3254C14.792 50.3574 14.7199 50.4048 14.6589 50.4648C14.598 50.5248 14.5495 50.5963 14.5162 50.6751C14.4829 50.7539 14.4655 50.8385 14.465 50.924L14.583 52.402C14.583 53.288 15.226 54.047 16.11 54.204L35.043 59.962V63.925L13.583 58.005C11.846 57.719 10.62 56.639 10.25 54.593C10.2193 54.4128 10.2006 54.2307 10.194 54.048L10.078 51.958C9.97121 49.6539 9.97221 47.346 10.081 45.042L10.182 43.324C10.2026 42.7163 10.3437 42.1188 10.597 41.566C11.157 40.387 12.204 39.411 13.554 39.178L35.044 33.031V36.995L16.093 42.988C15.217 43.152 14.583 43.908 14.583 44.786L14.465 46.111C14.4655 46.1965 14.4829 46.2811 14.5162 46.3599C14.5495 46.4387 14.598 46.5102 14.6589 46.5702C14.7199 46.6302 14.792 46.6776 14.8713 46.7096C14.9506 46.7417 15.0355 46.7578 15.121 46.757L37.214 46.725V35.552C37.214 34.142 38.373 33 39.802 33H46V36.556H41.835ZM23 70.556H22.085C22.0103 70.5564 21.9365 70.5715 21.8676 70.6005C21.7988 70.6294 21.7364 70.6717 21.6839 70.7248C21.6314 70.778 21.5899 70.8409 21.5618 70.9101C21.5337 70.9793 21.5195 71.0533 21.52 71.128V93.872C21.52 94.187 21.773 94.444 22.085 94.444H23V98H16V94.444H16.915C16.9897 94.4436 17.0635 94.4285 17.1324 94.3995C17.2012 94.3706 17.2636 94.3283 17.3161 94.2752C17.3686 94.222 17.4101 94.1591 17.4382 94.0899C17.4663 94.0207 17.4805 93.9467 17.48 93.872V71.128C17.4805 71.0533 17.4663 70.9793 17.4382 70.9101C17.4101 70.8409 17.3686 70.778 17.3161 70.7248C17.2636 70.6717 17.2012 70.6294 17.1324 70.6005C17.0635 70.5715 16.9897 70.5564 16.915 70.556H16V67H23V70.556Z" fill="white"/>
</g>
<defs>
<clipPath id="clip0_126_948">
<rect width="58" height="98" fill="white"/>
</clipPath>
</defs>
</svg>
