<svg width="198" height="33" viewBox="0 0 198 33" fill="none" xmlns="http://www.w3.org/2000/svg">
<g clip-path="url(#clip0_132_35)">
<path d="M33.2984 1.23853H23.1357C13.9929 1.23853 13.2896 5.17699 13.2896 10.4517V20.2627C13.2896 25.7484 13.9929 29.4759 23.1709 29.4759H33.2984C42.4412 29.4759 43.1445 25.5374 43.1445 20.2979V10.4517C43.1445 5.21215 42.4412 1.23853 33.2984 1.23853ZM0.137939 8.30666C0.137939 3.6649 1.96651 1.23853 5.06101 1.23853C8.15552 1.23853 9.98409 3.6649 9.98409 8.30666V22.4078C9.98409 27.0495 8.15552 29.4759 5.06101 29.4759C1.96651 29.4759 0.137939 27.0495 0.137939 22.4078V8.30666Z" fill="#222222"/>
<path d="M147.654 22.4429C144.736 22.4429 143.224 20.0165 143.224 17.0626C143.224 14.1088 144.701 11.7879 147.654 11.7879C150.679 11.7879 152.085 14.1791 152.085 17.0275C152.085 20.0868 150.573 22.4429 147.654 22.4429ZM118.96 11.7879C120.683 11.7879 121.386 12.7725 121.386 13.6516C121.386 15.7615 119.241 16.6758 114.775 16.8165C114.775 14.2143 116.252 11.7879 118.96 11.7879ZM99.9006 22.4429C97.1226 22.4429 95.9621 20.1923 95.9621 17.0626C95.9621 13.9681 97.1577 11.8231 99.9006 11.8231C102.714 11.8231 104.015 14.0385 104.015 17.0626C104.05 20.1923 102.643 22.4429 99.9006 22.4429ZM76.4456 8.72857H72.1204L79.3292 25.2209C77.9577 28.2802 77.2193 29.0187 76.2698 29.0187C75.25 29.0187 74.3006 28.2099 73.6325 27.5066L71.7336 30.0385C73.0347 31.4099 74.7929 32.1835 76.6215 32.1835C78.9072 32.1835 80.6303 30.8824 81.65 28.4912L89.9489 8.69341H85.694L81.3687 20.5088L76.4456 8.72857ZM191.294 11.7879C193.404 11.7879 193.826 13.2297 193.826 16.6055V25.5022H197.588V14.2494C197.588 10.2055 194.81 8.44725 192.243 8.44725C189.958 8.44725 187.883 9.85384 186.723 12.4912C186.054 9.95934 183.945 8.44725 181.483 8.44725C179.338 8.44725 177.193 9.81868 176.032 12.3505V8.72857H172.27V25.5022H176.032V18.3286C176.032 14.7066 177.931 11.7879 180.534 11.7879C182.643 11.7879 183.03 13.2297 183.03 16.6055V25.5022H186.793L186.758 18.2934C186.758 14.7066 188.692 11.7879 191.294 11.7879ZM163.162 8.72857H159.435V25.5022H163.197V19.067C163.197 14.9879 164.991 12.2451 167.663 12.2451C168.367 12.2451 168.929 12.2802 169.562 12.5264L170.16 8.55275C169.668 8.51758 169.246 8.44725 168.824 8.44725C166.186 8.44725 164.287 10.2758 163.162 12.5967V8.72857ZM147.654 8.48242C142.696 8.48242 139.32 12.2802 139.32 17.0275C139.32 21.9857 142.731 25.678 147.654 25.678C152.648 25.678 156.059 21.8802 156.059 17.0275C156.059 12.2099 152.577 8.48242 147.654 8.48242ZM119.171 22.4429C117.202 22.4429 115.76 21.4582 115.162 19.4187C120.12 19.2077 125.008 18.0121 125.008 13.6165C125.008 11.0846 122.512 8.48242 118.96 8.48242C114.142 8.48242 110.907 12.3857 110.907 17.0275C110.907 21.8802 114.107 25.678 118.89 25.678C122.23 25.678 124.34 24.3418 125.993 22.4077L124.164 19.9461C122.195 21.9505 120.999 22.4429 119.171 22.4429ZM100.639 8.48242C98.7401 8.48242 96.8412 9.57253 96.1028 11.3308V8.76373H92.3402V32.1483H96.1028V23.744C96.9116 24.9396 98.705 25.7483 100.323 25.7483C105.316 25.7483 107.953 22.056 107.953 17.0626C107.953 12.1044 105.351 8.48242 100.639 8.48242ZM74.3006 2.01209H56.5775V5.66923H63.505V25.5022H67.4434V5.66923H74.3006V2.01209ZM130.177 8.72857H127.892V12.1044H130.142V25.5022H133.905V12.1044H137.562V8.72857H133.905V6.09121C133.905 4.4033 134.608 3.84066 136.156 3.84066C136.753 3.84066 137.281 3.98132 137.984 4.22747L138.828 1.06264C138.125 0.675824 136.753 0.5 135.874 0.5C132.287 0.5 130.177 2.64505 130.177 6.37253V8.72857Z" fill="#222222"/>
</g>
<defs>
<clipPath id="clip0_132_35">
<rect width="197.626" height="32" fill="white" transform="translate(0.137939 0.5)"/>
</clipPath>
</defs>
</svg>
