<?xml version="1.0" encoding="UTF-8"?>
<svg width="16px" height="16px" viewBox="0 0 16 16" version="1.1" xmlns="http://www.w3.org/2000/svg" xmlns:xlink="http://www.w3.org/1999/xlink">
    <title>favicon_theleftbit</title>
    <g id="favicon_theleftbit" stroke="none" stroke-width="1" fill="none" fill-rule="evenodd">
        <rect fill="#000000" x="0" y="0" width="16" height="16"></rect>
        <g id="ic-arrow-big" transform="translate(3.000000, 3.000000)" fill="#FFFFFF">
            <path d="M1.58569851,5.5825 C1.47211856,5.58441774 1.38152701,5.67791671 1.38319751,5.7915 L1.41944769,6.27025 C1.41944769,6.55675 1.61869867,6.8025 1.89245003,6.85325 L7.75497901,8.717 L7.75497901,10 L1.10994616,8.08375 C0.571693498,7.99125 0.192441623,7.64175 0.077691056,6.97925 C0.0676910066,6.921 0.0629409831,6.86175 0.0601909695,6.80275 L0.0244407927,6.12625 C-0.00855937041,5.3805 -0.00805936794,4.63375 0.0254407977,3.88775 L0.0564409509,3.3315 C0.0654409954,3.13525 0.104441188,2.94025 0.185191587,2.7625 C0.358442444,2.381 0.682694047,2.065 1.10069611,1.9895 L7.75497901,0 L7.75497901,1.28275 L1.88695,3.22275 C1.61569866,3.276 1.41944769,3.52025 1.41944769,3.805 L1.38294751,4.23375 C1.38294751,4.34925 1.47369796,4.44275 1.58569851,4.44275 L13,4.43275 L13,5.58275 L1.58569851,5.5825 Z" id="Path"></path>
        </g>
    </g>
</svg>