<svg xmlns="http://www.w3.org/2000/svg" width="14" height="65" viewBox="0 0 14 65">
    <path fill="#1B1B1B" fill-rule="evenodd"
          d="M7.816 0v62.787c0 .156.13.283.292.283l.67-.051a.823.823 0 0 0 .817-.66l2.609-8.183H14l-2.683 9.275c-.13.75-.619 1.28-1.546 1.44-.082.014-.164.021-.247.025l-.947.05c-1.044.046-2.09.045-3.134-.002l-.779-.043a2.166 2.166 0 0 1-.797-.18c-.534-.241-.976-.694-1.082-1.277L0 54.176h1.796l2.716 8.19a.823.823 0 0 0 .815.653l.6.05a.288.288 0 0 0 .293-.282L6.206 0h1.61z"/>
</svg>
