<svg xmlns="http://www.w3.org/2000/svg" width="65" height="15" viewBox="0 0 65 15">
    <path fill="#1B1B1B" fill-rule="evenodd"
          d="M0 6.684h62.787a.288.288 0 0 0 .283-.292l-.051-.67a.823.823 0 0 0-.66-.817l-8.183-2.609V.5l9.275 2.683c.75.13 1.28.619 1.44 1.546.014.082.021.164.025.247l.05.947c.046 1.044.045 2.09-.002 3.134l-.043.779a2.166 2.166 0 0 1-.18.797c-.241.534-.694.976-1.277 1.082L54.176 14.5v-1.796l8.19-2.716a.823.823 0 0 0 .653-.815l.05-.6a.288.288 0 0 0-.282-.293L0 8.294v-1.61z"/>
</svg>
