<svg xmlns="http://www.w3.org/2000/svg" width="48" height="40" viewBox="0 0 48 40">
    <path fill="#FAFAFA" fill-rule="evenodd"
          d="M48 22.33H6.343a.824.824 0 0 0-.81.836l.145 1.915c0 1.146.797 2.129 1.892 2.332l23.45 7.455V40L4.44 32.335c-2.153-.37-3.67-1.768-4.129-4.418-.04-.233-.059-.47-.07-.706l-.143-2.706c-.132-2.983-.13-5.97.004-8.954l.124-2.225c.036-.785.192-1.565.515-2.276.693-1.526 1.99-2.79 3.662-3.092L31.02 0v5.131l-23.472 7.76c-1.085.213-1.87 1.19-1.87 2.329l-.146 1.715c0 .462.363.836.811.836L48 17.731v4.6z"/>
</svg>
