<svg xmlns="http://www.w3.org/2000/svg" width="24" height="24" viewBox="0 0 24 24">
    <g fill="none" fill-rule="evenodd">
        <path d="M0 0h24v24H0z"/>
        <path fill="#1B1B1B"
              d="M12 10.586l7.425-7.425a.5.5 0 0 1 .707 0l.707.707a.5.5 0 0 1 0 .707L13.414 12l7.425 7.425a.5.5 0 0 1 0 .707l-.707.707a.5.5 0 0 1-.707 0L12 13.414 4.575 20.84a.5.5 0 0 1-.707 0l-.707-.707a.5.5 0 0 1 0-.707L10.586 12 3.16 4.575a.5.5 0 0 1 0-.707l.707-.707a.5.5 0 0 1 .707 0L12 10.586z"/>
    </g>
</svg>
