<svg width="356" height="76" fill="none" xmlns="http://www.w3.org/2000/svg"><g clip-path="url(#a)" fill="#4BAD71"><path d="M347.15 42.95a4.36 4.36 0 0 1 2.254 2.648 4.508 4.508 0 0 1-.194 3.438 4.711 4.711 0 0 1-1.102 1.439c-.43.398-.941.697-1.498.877a4.184 4.184 0 0 1-1.758.188 4.486 4.486 0 0 1-1.721-.497l-2.693 5.416c5.185 2.611 11.508.53 14.122-4.65a10.495 10.495 0 0 0 .555-8.139 10.16 10.16 0 0 0-5.315-6.064l-8.03-4.028a4.316 4.316 0 0 1-2.312-2.654 4.415 4.415 0 0 1 .296-3.439 4.32 4.32 0 0 1 2.542-2.266 3.92 3.92 0 0 1 1.771-.23 4.494 4.494 0 0 1 1.722.496l2.693-5.423a10.092 10.092 0 0 0-8.073-.518 10.225 10.225 0 0 0-6.05 5.273 10.347 10.347 0 0 0-.583 8.078 10.183 10.183 0 0 0 5.322 6.063l8.052 3.993Zm-95.403-3.912a11.81 11.81 0 0 0 2.161-7.064c.051-3.3-1.25-6.478-3.601-8.797a12.02 12.02 0 0 0-8.815-3.654l-16.391.05V42c.143 5.143-3.915 9.428-9.064 9.57-5.149.143-9.438-3.91-9.582-9.052a8.922 8.922 0 0 1 0-.518V19.523h-6.273V42c0 8.581 6.965 15.538 15.556 15.538S231.294 50.581 231.294 42V25.457h10.162c1.7.046 3.311.766 4.48 2a6.165 6.165 0 0 1 1.757 4.553 6.32 6.32 0 0 1-6.237 6.272l-5.553-.086 10.854 18.767h7.151l-7.67-13.43a12.109 12.109 0 0 0 5.509-4.495Zm19.402-19.515v5.934h12.466v31.506h6.302V25.457h12.459v-5.934h-31.227Zm-107.789 0v5.934h12.466v31.506h6.302V25.457h12.466v-5.899l-31.234-.035Zm-12.704-.634-19.042 38.074h7.065l12.013-24.457 11.962 24.457h7.101L150.656 18.89Zm108.747 38.074h6.28V19.558h-6.28v37.405Zm56.815-38.102-19.063 38.102h7.058l12.005-24.457 11.962 24.457h7.108l-19.07-38.102Zm-190.056 6.474V57.66L101.28 33.513v23.508H95V18.83l24.954 24.278V25.335h6.208ZM5.016 32.36l1.81-.381h.075c9.853 3.08 18.72 4.547 27.196 4.547l-.277.19-1.026.653-1.032.659-1.055.647-1.05.64-.127.082c-12.142-.902-21.908-3.143-27.708-6.355l1.39-.295 1.804-.387ZM67.46 57.438l-1.025-.058-1.032-.092-1.015-.104-1.009-.133-.225-.04a50.706 50.706 0 0 0 10.234-5.546 36.814 36.814 0 0 1-1.845 4.101 41.63 41.63 0 0 1-3.834 1.878l-.248-.006Z"/><path d="m10.447 31.176 1.816-.422 1.828-.433.265-.064c9.357 2.253 16.898 3.224 24.215 3.103l-.761.577-.958.682-.985.7-1.02.68-.295.197c-8.446.087-17.296-1.357-27.097-4.356l1.153-.254 1.839-.41ZM29.08 39.68l-.501.283-1.095.578-1.154.577-1.153.578-.813.364C14.454 40.899 5.881 38.524.04 35.312c.046-.681.104-1.369.19-2.056l1.102-.202c5.765 3.344 15.537 5.655 27.749 6.626ZM34.5 55.278l2 .618 1.62.514c-7.719 2.334-15.076 7.134-22.202 12.374-.801-.578-1.574-1.155-2.306-1.797 6.919-5.285 14.039-9.982 20.537-11.785l.351.076ZM43.166 58.016l1.055.318 1.066.311 1.073.312 1.09.295.322.087c-9.426 1.993-17.901 7.417-26.106 12.819-.83-.387-1.66-.815-2.467-1.271h-.04c7.95-5.546 16.096-10.919 23.96-12.854l.047-.017Z"/><path d="m40.56 57.207 1.55.491.48.139c-7.796 2.062-15.856 7.377-23.708 12.865-.94-.537-1.845-1.155-2.71-1.733 7.207-5.31 14.638-10.156 22.445-12.374l1.943.612ZM64.377 19.166l.501-.283 1.101-.578 1.153-.578 1.153-.577.814-.364.27.028a34.563 34.563 0 0 1 1.886 3.108c-2.206-.308-4.5-.56-6.878-.756ZM24.307 27.612l1.545-.468 1.534-.491.305-.093c10.643.994 15.688.774 19.17.277l-.103.076-1.857 1.496-1.845 1.45-.184.15c-7.04 0-12.217 0-21.246-1.629l1.153-.312 1.528-.456ZM69.79 57.467h-1.442a43.43 43.43 0 0 0 2.947-1.456l-.432.757-.387.676h-.201l-.485.023ZM52.667 17.473l1.678-.578 1.695-.577 1.73-.578 1.729-.607 1.764-.577 1.782-.578 1.81-.578 1.43-.45.26.3-1.067.433-1.038.578-1.026.578-1.02.577-.15.093a40.683 40.683 0 0 1-12.05 2.888l.795-.311 1.678-.613Z"/><path d="m30.464 25.636 1.534-.531 1.545-.544.312-.11c8.538.417 13.116-.057 16.788-.658l-.19.145-1.845 1.484-1.32 1.08c-3.46.515-8.268.82-18.916-.15l.536-.173 1.556-.543ZM44.503 20.512l1.603-.578 1.614-.612 1.413-.526A43.355 43.355 0 0 0 60.87 16.37l-.444.254-.98.641-1.009.705-.963.676-.957.681-.369.266c-3.413 1.098-9.38 1.774-14.413 1.964l1.153-.45 1.614-.595Z"/><path d="m36.64 23.452 1.556-.577 1.562-.578 1.124-.422c4.976-.121 10.822-.733 14.564-1.785l-1.263.936-1.862 1.421-1.153.93c-3.667.613-8.123 1.155-16.547.786l.513-.18 1.505-.53ZM17.717 29.414l1.822-.474.893-.237.577-.15c9.225 1.733 14.483 1.791 21.488 1.791l-.86.67-.95.74-.952.733-.773.578c-7.27.156-14.742-.768-24.024-2.958l.957-.213 1.822-.48ZM48.406 59.5l.15.04 1.119.278 1.153.272 1.153.248 1.026.214c-9.201 1.658-17.855 6.759-26.232 11.692l-2.082 1.225a47.79 47.79 0 0 1-2.738-1.155C30.28 66.83 38.882 61.372 48.406 59.5Z"/><path d="M26.924 72.499c8.574-5.038 17.452-10.29 26.873-11.797l.502.098 1.199.203 1.21.179 1.234.167 1.257.133 1.24.115c-11.64 1.63-22.185 6.933-33.134 12.71a22.105 22.105 0 0 1-2.26-.716l1.88-1.092ZM3.534 47.64l-.75.052-.726.035-.075.04-.72-.196c-.173-.67-.335-1.34-.496-2.04a38.871 38.871 0 0 0 6.48 1.659l-.726.092-.756.104L5 47.48l-.38.04-.381.035-.704.086ZM30.044 54.024l.985.266.992.271.992.289.576.18c-6.434 1.923-13.306 6.458-20.23 11.75a38.331 38.331 0 0 1-2.134-1.965c6.175-4.673 12.384-8.665 18.363-10.9l.456.109ZM31.485 24.215l-.629.352-.576.185-1.51.485-1.592.52-1.516.457-1.534.468-1.06.306c3.314-1.733 6.6-3.68 9.8-5.558 8.574-5.014 17.44-10.26 26.873-11.762l.49.093 1.205.202 1.217.185 1.153.144.622.578c-11.49 2.022-21.943 7.545-32.943 13.345Z"/><path d="M66.844 61.182H63.471l-.657-.128-.651-.046-.611-.034-.963-.087-1.257-.139-1.234-.156-1.228-.173-1.193-.202-1.188-.22-1.194-.265-1.153-.249-1.153-.237-1.118-.283-1.107-.312-1.09-.3-1.055-.3-1.066-.324-1.055-.324-1.004-.329-1.06-.34-1.546-.51-2.035-.675-2-.664-2.007-.642-1.51-.473-.998-.3-.991-.284-.998-.271-.991-.243-.998-.237-1.009-.23-1.009-.209-1.02-.185-1.015-.167-1.026-.139-1.032-.127-1.044-.087-1.043-.057-1.061-.047h-2.987l-.576.035-.577.04-.576.053-.53.08-.577.07-.577.08-.576.093-.577.098-.576.11-.577.121-.576.127-.577.127-.577.15-.576.162-.577.174-.605.185-.576.202-.617.202-.617.248-.617.226-.634.242-.19.07a38.86 38.86 0 0 1-1.972-5.101h.392l.743-.058.756-.052.76-.07.387-.034.386-.046.779-.081.772-.098.755-.11.756-.087.732-.133.732-.127.732-.138.721-.145.72-.15.71-.156.697-.168.698-.173.686-.179.686-.19.68-.174.67-.208.662-.196 1.01-.312 1.245-.44 1.262-.473 1.234-.52 1.21-.514 1.211-.572 1.154-.578 1.153-.577 1.153-.578 1.118-.624 1.101-.624 1.079-.641 1.055-.653 1.06-.693 1.032-.688 1.004-.681 1.003-.705 1.003-.7.974-.727.98-.728.963-.745.957-.745.969-.774 1.407-1.156 1.862-1.514 1.793-1.502 1.828-1.513 1.833-1.496 1.81-1.45 1.834-1.433 1.447-1.115.934-.699.934-.682.951-.681.957-.659.974-.653.97-.63.99-.617.992-.613 1.004-.578 1.026-.577 1.038-.578.23-.115a43.7 43.7 0 0 1 1.51 1.935l-.749.404-1.153.578-1.153.578-1.113.612-1.095.635-1.078.642-1.073.652-1.049.676-1.026.688-1.026.716-1.01.705-.991.762-1.009.711-.945.71-.969.74-.969.763-.95.75-1.408 1.156-1.85 1.456-1.84 1.52-1.804 1.524-1.828 1.502-1.85 1.473-1.828 1.439-1.424 1.051-.934.7-.946.687-.945.676-.951.664-.946.653-.957.653-.974.623-1.004.578-1.003.578-1.02.578-1.032.577-1.09.55-1.09.484-1.1.474-1.096.468-1.119.445-1.078.422-.576.196a.323.323 0 0 0-.208.364.376.376 0 0 0 .294.243h3.753l.663.034.663.035.652.04.646.052.957.087 1.257.139 1.24.161 1.221.185 1.2.197 1.153.22 1.153.236 1.153.254 1.153.266 1.119.272 1.106.3 1.09.3 1.078.312 1.067.318 1.06.323 1.05.336 1.032.335 1.55.502 2.082.734 2.007.664 2 .642 1.493.467.998.295.991.283.998.272.997.265.998.237 1.009.231 1.003.208 1.014.19 1.015.168 1.02.145 1.038.115 1.038.099 1.05.069 1.06.035h1.361a43.962 43.962 0 0 1-1.776 2.495.144.144 0 0 0-.069-.04h-.352l-.732.058Z"/><path d="m22.883 42.753-1.194.508-1.21.486-1.2.45A53.396 53.396 0 0 1 0 38.877c0-1.057 0-2.132.052-3.183 5.765 3.13 14.16 5.476 23.823 6.614l-.992.445ZM4.526 19.842l.41-.728A37.777 37.777 0 0 1 14.5 8.022a81.218 81.218 0 0 1 3.044-2.137A37.575 37.575 0 0 1 27.41 1.47l.576.052 1.01.104 1.002.133.231.046C21.862 5.018 13.134 12.152 4.526 19.842Z"/><path d="m17.014 44.971-.617.203-.657.19-.658.197-.668.179-.675.173-.167.046A50.913 50.913 0 0 1 .254 42.123a50.253 50.253 0 0 1-.225-2.888 53.853 53.853 0 0 0 18.588 5.2l-.629.219-.974.317ZM25.091 52.967l.992.179.997.196.992.214.986.237c-5.904 2.31-11.97 6.216-18.04 10.82a35.01 35.01 0 0 1-1.99-2.16c5.357-4.189 10.684-7.632 15.884-9.515l.179.029ZM14.517 52.586l.536-.053.537-.046.53-.04h2.992a60.303 60.303 0 0 0-12.107 7.475 33.07 33.07 0 0 1-1.505-2.31 37.519 37.519 0 0 1 8.7-4.963l.317-.063Z"/><path d="m20.035 52.418 1.026.063 1.015.081 1.003.11 1.009.139.23.034C19.245 54.77 14.05 58.166 8.845 62.21a40.172 40.172 0 0 1-1.643-2.12 58.334 58.334 0 0 1 12.603-7.701l.23.029ZM11.646 46.41l-.709.15-.715.162-.744.133-.72.127-.525.092A37.713 37.713 0 0 1 .68 45.243a61.822 61.822 0 0 1-.455-2.744 51.04 51.04 0 0 0 12.534 3.64l-.456.132-.657.139ZM7.749 53.955l.576-.174.577-.156.576-.144.577-.145.576-.12.577-.122.576-.127.577-.099.577-.086h.178a40.06 40.06 0 0 0-7.748 4.529c-.323-.578-.64-1.115-.94-1.681a32.883 32.883 0 0 1 3.01-1.548l.31-.127ZM5.408 54.734h.075a28.45 28.45 0 0 0-1.153.67l-.092-.196.576-.22.594-.254ZM46.377 73.521l-1.205.965a67.096 67.096 0 0 1-13.653.843 30.095 30.095 0 0 1-2.006-.416l1.193-.427 1.557-.578 1.551-.578 1.124-.421c4.987-.122 10.84-.722 14.581-1.774l-1.268.936-1.874 1.45Z"/><path d="m44.705 74.827-.19.15-.542.439c-3.393.542-6.843.62-10.257.231 3.68.048 7.357-.227 10.989-.82ZM31.03 1.927l1.008.145.992.196.992.214.991.225h.03C24.162 6.953 12.856 16.572 1.907 25.902a37.998 37.998 0 0 1 2.22-5.286C13.064 12.569 22.116 5.018 30.81 1.922l.22.005ZM63.938 62.308l-1.418.393-1.874.537-1.839.543-1.81.543-1.822.578-1.764.578-1.73.577-1.73.578-1.73.578-1.677.577-1.666.578-1.643.578-1.65.578-1.62.577-1.614.578-1.59.578-1.58.577-1.569.578-1.574.578-1.55.577-1.563.578-.94.33-.294-.087c11.323-5.95 22.18-11.41 34.247-12.71h3.857l-.957.232-.9.398Z"/><path d="m36 2.99.985.254.986.278.992.283.576.185C30.384 6.75 20.335 14.78 10.631 22.586 7.172 25.353 3.874 27.987.75 30.275c.263-1.295.594-2.575.991-3.836.121-.104.237-.208.358-.3C13.157 16.721 24.584 6.982 35.538 2.875l.461.115ZM60.635 21.436l1.043-.659 1.05-.646 1.066-.636.127-.064c2.606.18 5.091.44 7.46.763a38.399 38.399 0 0 1 1.569 3.333 78.576 78.576 0 0 0-13.612-1.236l.276-.19 1.02-.665ZM53.492 68.333l-.97.653-.956.67-.951.682-.375.266c-3.46 1.12-9.369 1.808-14.414 2.004l1.153-.462 1.592-.578 1.585-.618 1.62-.577 1.413-.532c3.999-.273 7.942-1.091 11.72-2.432l-.466.295-.951.63Z"/><path d="m61.672 63.683-1.066.526-1.055.531-1.044.578-1.026.578-1.015.577-.155.099a40.822 40.822 0 0 1-12.056 2.86l.807-.301 1.66-.613 1.684-.612 1.73-.578 1.73-.577 1.73-.578 1.763-.578 1.782-.578 1.833-.606 1.845-.52 1.874-.578.236-.07-.098.041-1.159.399ZM46.861 74.341l1.822-1.467 1.395-1.063.923-.699.945-.687.952-.67.974-.67.98-.665.975-.635.985-.624.998-.578 1.003-.578 1.02-.577 1.027-.543 1.049-.526 1.067-.508 1.1-.48 1.096-.468 1.09-.456 1.043-.376A37.694 37.694 0 0 1 45.973 75.07l.888-.728ZM64.745 12.748l-1.793.577-1.798.578-1.8.578-1.729.577-1.73.578-1.73.578-1.688.577-1.667.578-1.654.578-1.626.618-1.62.578-1.614.577-1.592.578-1.585.578-1.58.577-1.545.544-1.557.577-1.55.578-1.563.578-.75.26c10.678-5.685 20.923-10.925 32.097-12.86.415.422.818.843 1.222 1.277l-1.148.34ZM40.433 4.25l2 .63 1.626.508c-9.79 2.934-18.974 9.861-27.864 16.603-5.05 3.824-9.842 7.463-14.442 10.098l-.45.092-.928.174c.086-.578.178-1.11.282-1.658 3.194-2.311 6.59-5.061 10.124-7.898 9.41-7.527 20.03-16.048 29.254-18.63l.398.08ZM61.58 9.16l-1.182-.22-1.153-.23-1.164-.226-1.153-.271-1.096-.307-1.084-.317-1.09-.3-1.083-.318-1.067-.324-1.055-.318-1.044-.335-1.043-.34-1.528-.445-2.087-.705-2.006-.641-2.007-.653-1.487-.503-.998-.3-.997-.277-.969-.249-1.003-.266-1.014-.23-.992-.255-1.01-.208-1.008-.19-.45-.076a38.024 38.024 0 0 1 16.98.668A38.074 38.074 0 0 1 62.79 9.322l-1.21-.162Z"/><path d="m46.492 6.173 1.551.486.473.15C39.93 9.062 31.07 15.272 22.474 21.303c-5.068 3.588-9.928 6.933-14.616 9.497l-1.153.255-1.804.387-1.8.375-.46.081c4.387-2.617 8.93-6.037 13.756-9.676 8.97-6.806 18.27-13.865 28.164-16.667l1.931.618ZM54.5 8.484l1.101.3 1.154.278 1.153.254 1.02.208c-9.19 1.658-17.838 6.753-26.215 11.67-3.58 2.097-7.3 4.292-11 6.221l-.629.168-.767.208-.91.237-1.857.456-1.799.456c3.632-2.022 7.178-4.384 10.92-6.857 8.7-5.73 17.66-11.652 27.662-13.599h.167Z"/><path d="m49.098 6.976 1.061.324 1.067.312 1.078.294 1.09.295.316.087c-9.818 2.102-18.65 7.92-27.19 13.552-4.035 2.652-7.938 5.2-11.836 7.366l-.75.185-1.82.428-1.788.41-1.424.323c4.393-2.426 8.942-5.65 13.745-9.03 8.74-6.105 17.745-12.46 26.428-14.575l.023.03ZM57.452 55.855l-.991-.26-.986-.317-.992-.283-.576-.18c6.918-2.068 14.367-7.18 21.799-12.952a35.753 35.753 0 0 1-.646 4.044c-5.766 4.275-11.531 7.863-17.118 9.971l-.49-.023ZM44.359 51.852l-1.084-.33-1.043-.288-1.084-.3-1.113-.319-.317-.08c9.801-2.103 18.634-7.92 27.166-13.559 2.883-1.895 5.639-3.709 8.395-5.372.127.768.236 1.542.34 2.31-1.591 1.086-3.194 2.219-4.831 3.357-8.718 6.13-17.752 12.443-26.429 14.575v.006Z"/><path d="m38.94 50.315-1.154-.26-1.153-.266-1.153-.248-1.032-.208c9.225-1.733 17.873-6.794 26.244-11.71 3.586-2.091 7.3-4.292 11.035-6.199l.623-.173.773-.202.905-.237 1.02-.242c.052.248.104.502.15.762a346.045 346.045 0 0 0-8.492 5.436c-8.648 5.73-17.643 11.658-27.645 13.628l-.121-.08Z"/><path d="m33.186 49.073-1.211-.231-1.217-.185-1.233-.156-1.252-.156-1.24-.115c12.276-1.676 23.287-7.499 34.91-13.634l.687-.358.576-.185 1.54-.508 1.527-.491 1.51-.486 1.534-.462 1.061-.306c-3.315 1.733-6.601 3.68-9.801 5.557-8.596 5.032-17.47 10.278-26.884 11.785l-.507-.069ZM52.984 54.584l-1.995-.624-1.62-.514c9.288-2.767 18.029-9.168 26.521-15.598 0 1.214-.05 2.427-.15 3.64-7.455 5.806-15.336 11.19-22.364 13.171l-.392-.075Z"/><path d="m46.953 52.655-1.556-.491-.473-.145c8.585-2.253 17.446-8.486 26.048-14.488a739.644 739.644 0 0 1 4.693-3.264c.104 1.08.173 2.172.196 3.258-8.63 6.51-17.527 13.073-26.988 15.748l-1.92-.618ZM62.405 56.895l-.992-.179-.997-.196-.986-.22-.98-.248c5.42-2.063 10.954-5.546 16.477-9.63a37.02 37.02 0 0 1-1.355 4.586 49.753 49.753 0 0 1-10.994 5.922l-.173-.035ZM25.397 48.143H21.649l.963-.237.98-.271 1.418-.393 1.874-.63 1.845-.578 1.81-.537 1.8-.578 1.77-.577 1.729-.578 1.73-.578 1.683-.618 1.69-.578 1.665-.577 1.655-.578 1.637-.578 1.632-.577 1.603-.578 1.597-.578 1.562-.577 1.58-.578 1.562-.578 1.574-.577 1.54-.578 1.54-.578.754-.26c-11.698 6.193-22.848 11.935-35.307 13.287l-.138.058ZM34.004 41.523l.969-.653.968-.67.958-.688.374-.266c3.43-1.12 9.37-1.808 14.414-2.004l-1.188.445-1.591.577-1.58.647-1.62.578-1.412.526A43.799 43.799 0 0 0 32.54 42.47l.473-.306.991-.641ZM48.527 30.402l1.886-1.49.184-.15c7.017 0 12.2 0 21.217 1.675l-1.153.312-1.54.45-1.539.474-1.54.49-.305.1c-10.649-1-15.664-.763-19.164-.284l.092-.075 1.862-1.502Z"/><path d="m44.838 33.377 1.303-1.051c3.459-.515 8.261-.826 18.916.138l-.542.18-1.54.514-1.533.531-1.54.543-.31.116c-8.545-.416-13.123.052-16.795.664l.196-.15 1.845-1.485ZM25.823 46.185l1.067-.515 1.038-.543 1.043-.577 1.044-.613 1.014-.577.15-.087a40.77 40.77 0 0 1 12.039-2.842l-.802.294-1.66.613-1.678.577-1.73.578-1.73.607-1.729.577-1.764.578-1.787.578-1.828.612-1.85.578-1.875.577-.172-.052.098-.034 1.112-.33ZM52.748 27.063l.957-.728.772-.578a87.897 87.897 0 0 1 19.966 2.074c.167.578.323 1.19.461 1.791l-.986.272-.905.242-.577.156c-9.27-1.762-14.5-1.825-21.51-1.802l.847-.676.975-.751Z"/><path d="m41.125 36.34 1.216-.964c3.661-.618 8.118-1.155 16.547-.786l-.513.185-1.569.578-1.556.578-1.563.577-1.153.428c-4.981.11-10.821.722-14.563 1.773l1.268-.93 1.886-1.438ZM56.616 24.18l.992-.676.997-.699.294-.196c4.762-.005 9.515.42 14.2 1.27a37.317 37.317 0 0 1 1.246 3.652 88.133 88.133 0 0 0-19.493-2.051l.755-.578 1.01-.722Z"/></g><defs><clipPath id="a"><path fill="#fff" d="M0 0h356v75.852H0z"/></clipPath></defs></svg>