<svg xmlns="http://www.w3.org/2000/svg" width="146" height="32" viewBox="0 0 146 32">
    <path fill="#FFF" fill-rule="evenodd"
          d="M7.703 4.158V32H3.557V4.158a.485.485 0 0 0-.483-.487H0V.001h11.131v3.67H8.186a.485.485 0 0 0-.483.487zm97.364 0V32h-4.146V4.158a.485.485 0 0 0-.483-.487h-3.073V.001h11.13v3.67h-2.945a.485.485 0 0 0-.483.487zm-55.178 24.17V32H43.63a2.624 2.624 0 0 1-2.614-2.634V.001H45.2v27.84c0 .27.217.488.484.488h4.206zM35.496 17.836H31.29a.485.485 0 0 0-.483.488v9.519c0 .269.216.487.483.487h4.206V32H29.24a2.624 2.624 0 0 1-2.614-2.634V2.634A2.624 2.624 0 0 1 29.24 0h6.257v3.671H31.29a.485.485 0 0 0-.483.487v9.52c0 .268.216.486.483.486h4.206v3.671zM19.75 0h4.189v32H19.75V18.323a.485.485 0 0 0-.483-.487H17.03a.485.485 0 0 0-.483.487V32h-4.188V0h4.188v13.677c0 .27.216.488.483.488h2.237a.485.485 0 0 0 .483-.488V0zm72.148 3.671a.485.485 0 0 0-.483.487v10.007h4.69v3.67h-4.69V32h-4.182V17.836H52.838a.664.664 0 0 0-.661.666l.119 1.526c0 .914.65 1.698 1.542 1.86l19.119 5.944v4.09l-21.67-6.11c-1.756-.295-2.993-1.41-3.367-3.522a4.373 4.373 0 0 1-.056-.563l-.117-2.157a78.137 78.137 0 0 1 .003-7.14l.101-1.774a4.83 4.83 0 0 1 .42-1.814c.565-1.217 1.622-2.225 2.985-2.465l21.7-6.345v4.091L53.82 10.31a1.886 1.886 0 0 0-1.524 1.856l-.12 1.368c0 .368.297.667.662.667l34.395-.032V2.634A2.624 2.624 0 0 1 89.846 0h6.258v3.671h-4.206zm50.673.487V32h-4.145V4.158a.485.485 0 0 0-.483-.487h-3.074V.001H146v3.67h-2.945a.485.485 0 0 0-.484.487zm-8.615-.487h-.948a.588.588 0 0 0-.586.59V27.74c0 .326.262.59.586.59h.948v3.67H126.7v-3.67h.948a.588.588 0 0 0 .586-.59V4.26a.588.588 0 0 0-.586-.59h-.948V.001H133.956v3.67zM121.17 26.785c0 1.938-1.656 1.86-1.656 1.86h-.781a.485.485 0 0 1-.483-.487v-9.65c0-.27.216-.488.483-.488h.92c1.517 0 1.517 1.705 1.517 1.705v7.06zm-2.92-22.943c0-.27.216-.487.483-.487h.781s1.656-.078 1.656 1.86v7.06s0 1.705-1.516 1.705h-.921a.485.485 0 0 1-.483-.488v-9.65zm3.309 12.633a.488.488 0 0 1-.362-.471v-.008c0-.222.15-.414.362-.471.897-.243 3.185-1.12 3.622-3.828.547-3.385-.1-9.266-1.718-10.523C121.952 0 120.692 0 120.306 0h-3.632a2.624 2.624 0 0 0-2.614 2.634v25.695c0 2.027 1.631 3.671 3.643 3.671h2.603c.385 0 1.645 0 3.156-1.174 1.618-1.257 2.265-7.138 1.718-10.523-.437-2.708-2.725-3.585-3.622-3.828z"/>
</svg>
