<svg xmlns="http://www.w3.org/2000/svg" width="58" height="98" viewBox="0 0 58 98">
    <path fill="#1B1B1B" fill-rule="evenodd"
          d="M54.612 37.028V64h-4.097V37.028a.475.475 0 0 0-.477-.472H47V33h11v3.556h-2.91a.475.475 0 0 0-.478.472zM12 60.444V64H5.652C4.187 64 3 62.858 3 61.448V33h4.242v26.972c0 .26.22.472.49.472H12zm22.712-43.228h-4.13a.472.472 0 0 0-.475.47v9.188c0 .26.212.47.474.47h4.13v3.544h-6.144c-1.418 0-2.567-1.139-2.567-2.543V2.543C26 1.137 27.15 0 28.567 0h6.145v3.543h-4.13a.472.472 0 0 0-.475.47v9.189c0 .26.212.47.474.47h4.13v3.544zm-23.87 75.75v-6.814s0-1.646-1.457-1.646h-.884a.467.467 0 0 0-.464.47v9.316c0 .26.208.47.464.47h.75s1.59.075 1.59-1.796zM8.036 70.82v9.315c0 .26.208.47.464.47h.884c1.456 0 1.456-1.645 1.456-1.645v-6.815c0-1.87-1.59-1.795-1.59-1.795H8.5a.467.467 0 0 0-.464.47zm3.177 12.194c.862.234 3.058 1.081 3.478 3.695.525 3.267-.096 8.943-1.65 10.157C11.592 98 10.382 98 10.012 98H7.513c-1.931 0-3.497-1.586-3.497-3.544V69.655c0-1.404 1.123-2.543 2.51-2.543h3.486c.37 0 1.58 0 3.03 1.133 1.554 1.214 2.175 6.89 1.65 10.158-.42 2.613-2.616 3.46-3.478 3.694a.471.471 0 0 0-.347.455v.008c0 .214.143.4.347.455zm20.377-11.889V98h-3.98V71.126c0-.26-.208-.47-.465-.47h-2.951v-3.544h10.688v3.544h-2.828a.467.467 0 0 0-.464.47zM7.533 4.052v26.874H3.479V4.052c0-.26-.212-.47-.473-.47H0V.038h10.886v3.544h-2.88c-.262 0-.473.21-.473.47zM19.022 0H23v31h-3.978V17.75a.466.466 0 0 0-.46-.472h-2.124a.466.466 0 0 0-.46.472V31H12V0h3.978v13.25c0 .26.206.472.46.472h2.125c.253 0 .459-.212.459-.472V0zm22.813 36.556a.475.475 0 0 0-.479.472v9.694H46v3.556h-4.644V64h-4.14V50.278H15.121a.65.65 0 0 0-.656.646l.118 1.478c0 .886.643 1.645 1.527 1.802l18.933 5.758v3.963l-21.46-5.92c-1.737-.286-2.963-1.366-3.333-3.412a4.131 4.131 0 0 1-.056-.545l-.116-2.09a74 74 0 0 1 .003-6.916l.101-1.718a4.594 4.594 0 0 1 .415-1.758c.56-1.179 1.607-2.155 2.957-2.388l21.49-6.147v3.964l-18.951 5.993c-.876.164-1.51.92-1.51 1.798l-.118 1.325a.65.65 0 0 0 .656.646l22.093-.032V35.552c0-1.41 1.159-2.552 2.588-2.552H46v3.556h-4.165zM23 70.556h-.915a.568.568 0 0 0-.565.572v22.744c0 .315.253.572.565.572H23V98h-7v-3.556h.915a.568.568 0 0 0 .565-.572V71.128a.568.568 0 0 0-.565-.572H16V67h7v3.556z"/>
</svg>
